<?xml version="1.0" encoding="UTF-8" standalone="no"?>
<svg
   xmlns:dc="http://purl.org/dc/elements/1.1/"
   xmlns:cc="http://creativecommons.org/ns#"
   xmlns:rdf="http://www.w3.org/1999/02/22-rdf-syntax-ns#"
   xmlns:svg="http://www.w3.org/2000/svg"
   xmlns="http://www.w3.org/2000/svg"
   id="svg80"
   xml:space="preserve"
   enable-background="new 0 0 700 900"
   viewBox="0 0 700 1000"
   height="1000"
   width="700"
   y="0px"
   x="0px"
   version="1.1"><metadata
   id="metadata86"><rdf:RDF><cc:Work
       rdf:about=""><dc:format>image/svg+xml</dc:format><dc:type
         rdf:resource="http://purl.org/dc/dcmitype/StillImage" /><dc:title></dc:title></cc:Work></rdf:RDF></metadata><defs
   id="defs84">
	
	
	
	
	
</defs>
<path
   id="lash_1_"
   stroke-miterlimit="10"
   d="M 675.608,111.148 H 31.294 c -3.689,0 -6.786,-2.499 -7.711,-5.895 9.954,-27.399 26.96,-74.419 28.833,-80.976 2.667,-9.334 5.333,-15.334 20,-15.334 14.667,0 281.035,0 281.035,0 0,0 265.368,0 280.035,0 14.667,0 17.333,6 20,15.334 1.904,6.666 19.452,55.158 29.326,82.332 -1.291,2.682 -4.028,4.539 -7.204,4.539 z"
   style="fill:#fcd17a;stroke:#333333;stroke-width:4;stroke-miterlimit:10" /><g
   transform="translate(0,100)"
   id="Camera_Standing">
</g>
<g
   transform="translate(0,100)"
   id="Camera_Lying">
</g>
<g
   transform="translate(0,100)"
   id="Colours_1_">
</g>
<g
   transform="translate(0,100)"
   id="Aquarell_1_">
</g>
<path
   style="fill:#ffffff;stroke:#333333;stroke-width:4;stroke-miterlimit:10;stroke-opacity:1"
   d="m 41.438752,932.0032 c -4.280814,0 -7.748079,-3.4692 -7.748079,-7.7481 V 98.36701 c 0,-4.27888 3.467265,-7.74808 7.748079,-7.74808 H 665.46325 c 4.27887,0 7.74808,3.4692 7.74808,7.74808 V 924.2542 c 0,4.2788 -3.46921,7.748 -7.74808,7.748 H 41.438752 Z"
   stroke-miterlimit="10"
   id="path900" /><path
   id="background_13_"
   stroke-miterlimit="10"
   d="m 31.294,983.889 c -4.42,0 -8,-3.582 -8,-8 V 123.148 c 0,-4.418 3.58,-8 8,-8 h 644.314 c 4.418,0 8,3.582 8,8 v 852.74 c 0,4.418 -3.582,8 -8,8 H 31.294 Z"
   style="fill:#fcd17a;stroke:#333333;stroke-width:4;stroke-miterlimit:10" /><path
   id="Button_5_"
   stroke-miterlimit="10"
   d="m 353.451,237.353 c -17.121,0 -31,13.878 -31,31 0,17.12 13.879,31 31,31 17.121,0 31,-13.88 31,-31 0,-17.123 -13.879,-31 -31,-31 z m 0,37.5 c -3.591,0 -6.5,-2.912 -6.5,-6.5 0,-3.588 2.909,-6.5 6.5,-6.5 3.588,0 6.5,2.912 6.5,6.5 0,3.588 -2.912,6.5 -6.5,6.5 z"
   style="fill:#e2e2e2;stroke:#333333;stroke-width:4;stroke-miterlimit:10" />
<g
   transform="translate(0,100)"
   id="Envelope_small_1_">
</g>

<g
   transform="translate(0,100)"
   id="Highlighters_Closed_1_">
</g>
<g
   transform="translate(0,100)"
   id="Highlighters_Open_1_">
</g>
<g
   transform="translate(0,100)"
   id="USB_Stick_1_">
</g>
<g
   transform="translate(0,100)"
   id="Pencil_Small">
</g>
<g
   transform="translate(0,100)"
   id="Pencil_Large">
</g>
<g
   transform="translate(0,100)"
   id="Brush_3_">
</g>
<g
   transform="translate(0,100)"
   id="Notepad_1_">
</g>
<g
   transform="translate(0,100)"
   id="Moleskine_Large_Open">
</g>
<g
   transform="translate(0,100)"
   id="Moleskine_Small_Open_1_">
</g>
<g
   transform="translate(0,100)"
   id="Moleskine_Large">
</g>
<g
   transform="translate(0,100)"
   id="Moleskine_Small_1_">
</g>
<g
   transform="translate(0,100)"
   id="iPad_Mini">
</g>
<g
   transform="translate(0,100)"
   id="MacBook_13_x22_">
</g>
<g
   transform="translate(0,100)"
   id="iMac_1_">
</g>
<g
   transform="translate(0,100)"
   id="Wallet_2_">
</g>
<g
   transform="translate(0,100)"
   id="iPhone_6_Grey">
</g>
<g
   transform="translate(0,100)"
   id="iPhone_6_Silver_1_">
</g>
<g
   transform="translate(0,100)"
   id="iPhone_6_Gold_1_">
</g>
<g
   transform="translate(0,100)"
   id="Wallet_1_">
</g>
<g
   transform="translate(0,100)"
   id="Bills">
</g>
<g
   transform="translate(0,100)"
   id="Coins_1_">
</g>
<g
   transform="translate(0,100)"
   id="Passport_Red_1_">
</g>
<g
   transform="translate(0,100)"
   id="Passport_Blue_1_">
</g>
<g
   transform="translate(0,100)"
   id="Credit_Card_Red">
</g>
<g
   transform="translate(0,100)"
   id="Credit_Card_Blue">
</g>
<g
   transform="translate(0,100)"
   id="Aeroplane_1_">
</g>
<g
   transform="translate(0,100)"
   id="Magic_Mouse_1_">
</g>
<g
   transform="translate(0,100)"
   id="Keyboard">
</g>
<g
   transform="translate(0,100)"
   id="Ruler_1_">
</g>
<g
   transform="translate(0,100)"
   id="Charger_1_">
</g>
<g
   transform="translate(0,100)"
   id="Macbook_13_x22_">
</g>
<g
   transform="translate(0,100)"
   id="Brushes">
</g>
<g
   transform="translate(0,100)"
   id="Pencils">
</g>
<g
   transform="translate(0,100)"
   id="Can">
</g>
<g
   transform="translate(0,100)"
   id="Coffee">
</g>
<g
   transform="translate(0,100)"
   id="Stylus">
</g>
<g
   transform="translate(0,100)"
   id="Wacom_1_">
</g>
<g
   transform="translate(0,100)"
   id="Paperclips_1_">
</g>
<g
   transform="translate(0,100)"
   id="Earbuds_1_">
</g>
<g
   transform="translate(0,100)"
   id="Glasses">
</g>
<g
   transform="translate(0,100)"
   id="Sunglasses">
</g>
<g
   transform="translate(0,100)"
   id="Case_1_">
</g>
<g
   transform="translate(0,100)"
   id="Donut_1_">
</g>
</svg>