<?xml version="1.0" encoding="UTF-8" standalone="no"?>
<svg
   xmlns:dc="http://purl.org/dc/elements/1.1/"
   xmlns:cc="http://creativecommons.org/ns#"
   xmlns:rdf="http://www.w3.org/1999/02/22-rdf-syntax-ns#"
   xmlns:svg="http://www.w3.org/2000/svg"
   xmlns="http://www.w3.org/2000/svg"
   id="svg59"
   xml:space="preserve"
   enable-background="new 0 0 950 700"
   viewBox="0 0 400 500"
   height="500"
   width="400"
   y="0px"
   x="0px"
   version="1.1"><metadata
   id="metadata65"><rdf:RDF><cc:Work
       rdf:about=""><dc:format>image/svg+xml</dc:format><dc:type
         rdf:resource="http://purl.org/dc/dcmitype/StillImage" /><dc:title></dc:title></cc:Work></rdf:RDF></metadata><defs
   id="defs63">
	
	
	
<filter
   id="filter1203"
   style="color-interpolation-filters:sRGB"><feFlood
     id="feFlood1193"
     result="flood"
     flood-color="rgb(0,0,0)"
     flood-opacity="0.498039" /><feComposite
     id="feComposite1195"
     result="composite1"
     operator="in"
     in2="SourceGraphic"
     in="flood" /><feGaussianBlur
     id="feGaussianBlur1197"
     result="blur"
     stdDeviation="3"
     in="composite1" /><feOffset
     id="feOffset1199"
     result="offset"
     dy="4.2"
     dx="1.8" /><feComposite
     id="feComposite1201"
     result="composite2"
     operator="over"
     in2="offset"
     in="SourceGraphic" /></filter></defs>
<g
   transform="translate(0,-200)"
   id="Camera_Standing">
</g>
<g
   transform="translate(0,-200)"
   id="Camera_Lying">
</g>
<g
   transform="translate(0,-200)"
   id="Colours_1_">
</g>
<g
   transform="translate(0,-200)"
   id="Aquarell_1_">
</g>
<g
   transform="translate(0,-200)"
   id="Envelope_big_1_">
</g>
<g
   transform="translate(0,-200)"
   id="Envelope_small_1_">
</g>
<g
   transform="translate(0,-200)"
   id="Airmail_1_">
</g>
<g
   transform="translate(0,-200)"
   id="Highlighters_Closed_1_">
</g>
<g
   transform="translate(0,-200)"
   id="Highlighters_Open_1_">
</g>
<g
   transform="translate(0,-200)"
   id="USB_Stick_1_">
</g>
<g
   transform="translate(0,-200)"
   id="Pencil_Small">
</g>
<g
   transform="translate(0,-200)"
   id="Pencil_Large">
</g>
<g
   transform="translate(0,-200)"
   id="Brush_3_">
</g>
<g
   transform="translate(0,-200)"
   id="Notepad_1_">
</g>
<g
   transform="translate(0,-200)"
   id="Moleskine_Large_Open">
</g>
<g
   transform="translate(0,-200)"
   id="Moleskine_Small_Open_1_">
</g>
<g
   transform="translate(0,-200)"
   id="Moleskine_Large">
</g>
<g
   transform="translate(0,-200)"
   id="Moleskine_Small_1_">
</g>
<g
   transform="translate(0,-200)"
   id="iPad_Mini">
</g>
<g
   transform="translate(0,-200)"
   id="MacBook_13_x22_">
</g>
<g
   transform="translate(0,-200)"
   id="iMac_1_">
</g>
<g
   transform="translate(0,-200)"
   id="Wallet_2_">
</g>
<g
   transform="translate(0,-200)"
   id="iPhone_6_Grey">
</g>
<g
   transform="translate(0,-200)"
   id="iPhone_6_Silver_1_">
</g>
<g
   transform="translate(0,-200)"
   id="iPhone_6_Gold_1_">
</g>
<g
   transform="translate(0,-200)"
   id="Wallet_1_">
</g>
<g
   transform="translate(0,-200)"
   id="Bills">
</g>
<g
   transform="translate(0,-200)"
   id="Coins_1_">
</g>
<g
   transform="translate(0,-200)"
   id="Passport_Red_1_">
</g>
<g
   transform="translate(0,-200)"
   id="Passport_Blue_1_">
</g>
<g
   transform="translate(0,-200)"
   id="Credit_Card_Red">
</g>
<g
   transform="translate(0,-200)"
   id="Credit_Card_Blue">
</g>
<g
   transform="translate(0,-200)"
   id="Aeroplane_1_">
</g>
<g
   transform="translate(0,-200)"
   id="Magic_Mouse_1_">
</g>
<g
   transform="translate(0,-200)"
   id="Keyboard">
</g>
<g
   transform="translate(0,-200)"
   id="Ruler_1_">
</g>
<g
   transform="translate(0,-200)"
   id="Charger_1_">
</g>

<g
   transform="translate(0,-200)"
   id="Brushes">
</g>
<g
   transform="translate(0,-200)"
   id="Pencils">
</g>
<g
   transform="translate(0,-200)"
   id="Can">
</g>
<g
   transform="translate(0,-200)"
   id="Coffee">
</g>
<g
   transform="translate(0,-200)"
   id="Stylus">
</g>
<g
   transform="translate(0,-200)"
   id="Wacom_1_">
</g>
<g
   transform="translate(0,-200)"
   id="Paperclips_1_">
</g>
<g
   transform="translate(0,-200)"
   id="Earbuds_1_">
</g>
<g
   transform="translate(0,-200)"
   id="Glasses">
</g>
<g
   transform="translate(0,-200)"
   id="Sunglasses">
</g>
<g
   transform="translate(0,-200)"
   id="Case_1_">
</g>
<g
   transform="translate(0,-200)"
   id="Donut_1_">
</g>
<g
   transform="translate(-215.20303,-720.52425)"
   style="filter:url(#filter1203)"
   id="g975"><g
     transform="matrix(0.63149516,8.9903438e-6,8.9963875e-6,0.631464,239.9879,812.61323)"
     id="Moleskine_Small_Open_1_-7"
     style="stroke-width:1.5835824"><path
       style="fill:#616263;stroke:#333333;stroke-width:6.33432961;stroke-miterlimit:10"
       id="Background_30_"
       stroke-miterlimit="10"
       d="M 508.834,26.629 H 377.889 292.063 278.044 277.889 263.87 178.044 47.099 c -13.484,0 -24.173,9.848 -24.173,24.174 v 348.503 c 0,15.671 9.188,24.174 24.173,24.174 h 130.945 85.826 14.019 0.155 14.019 85.826 130.945 c 14.984,0 24.173,-8.503 24.173,-24.174 V 50.803 c 0,-14.326 -10.689,-24.174 -24.173,-24.174 z" /><path
       style="fill:#fc8065;fill-opacity:1;stroke:#333333;stroke-width:6.33432961;stroke-miterlimit:10"
       id="Label_2_"
       stroke-miterlimit="10"
       d="m 17.889,332.215 h 8.037 V 194.596 h -8.037 v 61.55916 z M 528.988,194.596 v 137.619 h 8.037 V 194.596 Z" /><g
       id="Paper"
       style="stroke-width:1.5835824"><path
         style="fill:#ffffff;stroke-width:1.5835824"
         d="m 53.147,417.636 c -15.793,0 -25.222,-9.429 -25.222,-25.222 V 57.631 c 0,-14.379 10.843,-25.223 25.222,-25.223 h 449.558 c 14.378,0 25.221,10.844 25.221,25.223 v 334.783 c 0,15.793 -9.429,25.222 -25.221,25.222 z"
         id="path19" /><path
         style="fill:#333333;stroke-width:1.5835824"
         d="m 502.705,34.408 c 12.954,0 23.221,9.461 23.221,23.223 v 334.783 c 0,15.054 -8.828,23.222 -23.221,23.222 H 373.914 291.467 278 277.852 264.385 181.938 53.147 c -14.394,0 -23.222,-8.168 -23.222,-23.222 V 57.631 c 0,-13.762 10.268,-23.223 23.222,-23.223 h 128.79 191.977 128.791 m 0,-4 H 373.914 181.938 53.147 c -15.519,0 -27.222,11.703 -27.222,27.223 v 334.783 c 0,8.408 2.564,15.363 7.414,20.113 4.748,4.65 11.598,7.108 19.808,7.108 h 128.79 82.447 13.467 0.149 13.467 82.447 128.791 c 8.21,0 15.059,-2.458 19.807,-7.108 4.851,-4.75 7.414,-11.705 7.414,-20.113 V 57.631 c 0,-15.52 -11.702,-27.223 -27.221,-27.223 z"
         id="path21" /></g><g
       id="Lines"
       style="stroke-width:1.5835824"><line
         style="fill:none;stroke:#e2e2e2;stroke-width:3.1671648;stroke-miterlimit:10"
         id="Line_11_"
         stroke-miterlimit="10"
         x1="29.926001"
         y1="64.209"
         x2="525.92603"
         y2="64.209" /><line
         style="fill:none;stroke:#e2e2e2;stroke-width:3.1671648;stroke-miterlimit:10"
         id="Line_10_"
         stroke-miterlimit="10"
         x1="29.926001"
         y1="94.209"
         x2="525.92603"
         y2="94.209" /><line
         style="fill:none;stroke:#e2e2e2;stroke-width:3.1671648;stroke-miterlimit:10"
         id="Line_9_"
         stroke-miterlimit="10"
         x1="29.926001"
         y1="124.209"
         x2="525.92603"
         y2="124.209" /><line
         style="fill:none;stroke:#e2e2e2;stroke-width:3.1671648;stroke-miterlimit:10"
         id="Line_8_"
         stroke-miterlimit="10"
         x1="29.926001"
         y1="154.209"
         x2="525.92603"
         y2="154.209" /><line
         style="fill:none;stroke:#e2e2e2;stroke-width:3.1671648;stroke-miterlimit:10"
         id="Line_7_"
         stroke-miterlimit="10"
         x1="29.926001"
         y1="184.209"
         x2="525.92603"
         y2="184.209" /><line
         style="fill:none;stroke:#e2e2e2;stroke-width:3.1671648;stroke-miterlimit:10"
         id="Line_6_"
         stroke-miterlimit="10"
         x1="29.926001"
         y1="214.209"
         x2="525.92603"
         y2="214.209" /><line
         style="fill:none;stroke:#e2e2e2;stroke-width:3.1671648;stroke-miterlimit:10"
         id="Line_5_"
         stroke-miterlimit="10"
         x1="29.926001"
         y1="244.209"
         x2="525.92603"
         y2="244.209" /><line
         style="fill:none;stroke:#e2e2e2;stroke-width:3.1671648;stroke-miterlimit:10"
         id="Line_4_"
         stroke-miterlimit="10"
         x1="29.926001"
         y1="274.20901"
         x2="525.92603"
         y2="274.20901" /><line
         style="fill:none;stroke:#e2e2e2;stroke-width:3.1671648;stroke-miterlimit:10"
         id="Line_3_"
         stroke-miterlimit="10"
         x1="29.926001"
         y1="304.20901"
         x2="525.92603"
         y2="304.20901" /><line
         style="fill:none;stroke:#e2e2e2;stroke-width:3.1671648;stroke-miterlimit:10"
         id="Line_2_"
         stroke-miterlimit="10"
         x1="29.926001"
         y1="334.20901"
         x2="525.92603"
         y2="334.20901" /><line
         style="fill:none;stroke:#e2e2e2;stroke-width:3.1671648;stroke-miterlimit:10"
         id="Line_1_"
         stroke-miterlimit="10"
         x1="29.926001"
         y1="364.20901"
         x2="525.92603"
         y2="364.20901" /><line
         style="fill:none;stroke:#e2e2e2;stroke-width:3.1671648;stroke-miterlimit:10"
         id="Line"
         stroke-miterlimit="10"
         x1="29.926001"
         y1="394.20901"
         x2="525.92603"
         y2="394.20901" /></g><line
       style="fill:none;stroke:#e2e2e2;stroke-width:15.83582497;stroke-miterlimit:10"
       id="Border_Shadow"
       stroke-miterlimit="10"
       x1="278.09399"
       y1="34.284"
       x2="278.09399"
       y2="415.63599" /><line
       style="fill:#fef7ce;stroke:#333333;stroke-width:6.33432961;stroke-miterlimit:10"
       id="Border_23_"
       stroke-miterlimit="10"
       x1="278.09399"
       y1="34.284"
       x2="278.09399"
       y2="415.63599" /><g
       id="Lash_3_"
       style="stroke-width:1.5835824"><path
         style="fill:#333333;stroke-width:1.5835824"
         d="m 488.592,426.477 c -0.306,-0.042 -0.982,-0.408 -1.802,-1.001 l 0.967,-10e-4 V 24.602 h -1.746 c 1.049,-1.231 2.165,-2.433 2.785,-2.758 h 11.188 c 0.46,0 0.835,0.375 0.835,0.835 v 402.963 c 0,0.46 -0.375,0.835 -0.835,0.835 z"
         id="path39-5" /><path
         style="fill:#111111;stroke-width:1.5835824"
         d="m 498.818,23.844 v 400.633 h -9.062 v -1 -396.875 -2.758 h 9.062 m 1.165,-4 h -11.392 c -1.565,0 -5.125,4.683 -6.773,6.758 h 3.938 v 396.875 l -3.938,0.003 c 1.895,2.401 5.208,4.997 6.773,4.997 h 11.392 c 1.565,0 2.835,-1.27 2.835,-2.835 V 22.679 c 0,-1.566 -1.269,-2.835 -2.835,-2.835 z"
         id="path41-3" /></g><g
       id="Marker_2_"
       style="stroke-width:1.5835824"><polygon
         style="fill:#bb4d67;fill-opacity:1;stroke-width:1.5835824"
         points="233.487,436.024 233.487,29.479 252.154,29.479 252.154,436.023 242.82,430.771 "
         id="polygon44" /><path
         style="fill:#1d3333;fill-opacity:1;stroke-width:1.5835824"
         d="m 250.154,31.479 v 401.124 l -7.334,-4.127 -7.333,4.127 V 31.479 h 14.667 m 4,-4 h -4 -14.667 -4 v 4 401.124 6.841 l 5.962,-3.354 5.371,-3.023 5.372,3.023 5.962,3.354 V 432.603 31.479 Z"
         id="path46" /></g></g><g
     transform="matrix(-0.58341269,0.15632496,-0.15632496,-0.58341269,549.21568,1180.2337)"
     id="Pencil_Small-5"
     style="stroke-width:1.65564764"><g
       id="rubber"
       style="stroke-width:1.65564764"><path
         style="fill:#bb4d67;stroke-width:1.65564764"
         d="M 11.712,283.695 V 21.107 c 1.096,-1.107 4.235,-3.768 9.144,-3.768 5.596,0 8.3,2.623 9.144,3.648 v 262.721 l -8.983,22.697 z"
         id="path12" /><path
         style="fill:#333333;stroke-width:1.65564764"
         d="m 20.856,19.34 c 3.967,0 6.168,1.512 7.144,2.439 v 261.547 l -7.015,17.727 -7.272,-17.75 V 21.982 c 1.219,-1.043 3.659,-2.642 7.143,-2.642 m 0,-4 c -7.19,0 -11.144,5 -11.144,5 V 284.09 L 21.049,311.76 32,284.09 V 20.34 c 0,0 -3,-5 -11.144,-5 z"
         id="path14" /></g><g
       id="metal_1_"
       style="stroke-width:1.65564764"><path
         style="fill:#e2e2e2;stroke-width:1.65564764"
         d="M 11.712,302.695 V 40.107 c 1.096,-1.107 4.235,-3.768 9.144,-3.768 5.596,0 8.3,2.623 9.144,3.648 v 262.721 l -8.983,22.697 z"
         id="path17" /><path
         style="fill:#333333;stroke-width:1.65564764"
         d="m 20.856,38.34 c 3.967,0 6.168,1.512 7.144,2.439 v 261.547 l -7.015,17.727 -7.272,-17.75 V 40.982 c 1.219,-1.043 3.659,-2.642 7.143,-2.642 m 0,-4 c -7.19,0 -11.144,5 -11.144,5 V 303.09 L 21.049,330.76 32,303.09 V 39.34 c 0,0 -3,-5 -11.144,-5 z"
         id="path19-6" /></g><path
       style="fill:none;stroke:#616263;stroke-width:3.31129527;stroke-miterlimit:10"
       id="metal_border_1_"
       stroke-miterlimit="10"
       d="m 11.375,45.715 c 0,0 4.213,-3.375 9.481,-3.375 5.268,0 9.269,3.375 9.269,3.375" /><path
       style="fill:none;stroke:#616263;stroke-width:3.31129527;stroke-miterlimit:10"
       id="metal_border"
       stroke-miterlimit="10"
       d="m 11.375,49.715 c 0,0 4.213,-3.375 9.481,-3.375 5.268,0 9.269,3.375 9.269,3.375" /><g
       id="border_16_"
       style="stroke-width:1.65564764"><path
         style="fill:#333333;stroke-width:1.65564764"
         d="m 20.856,38.34 c 3.967,0 6.168,1.512 7.144,2.439 v 261.547 l -7.015,17.727 -7.272,-17.75 V 40.982 c 1.219,-1.043 3.659,-2.642 7.143,-2.642 m 0,-4 c -7.19,0 -11.144,5 -11.144,5 V 303.09 L 21.049,330.76 32,303.09 V 39.34 c 0,0 -3,-5 -11.144,-5 z"
         id="path24" /></g><g
       id="tip_wood_1_"
       style="stroke-width:1.65564764"><polygon
         style="fill:#fef7ce;stroke-width:1.65564764"
         points="17.736,63.34 23.661,63.34 30,67.43 30,329.709 21.017,352.406 11.712,329.695 11.712,67.402 "
         id="polygon27" /><path
         style="fill:#333333;stroke-width:1.65564764"
         d="M 23.072,65.34 28,68.52 v 260.807 l -7.015,17.727 -7.272,-17.75 V 68.467 l 4.636,-3.127 h 4.723 m 1.178,-4 h -7.125 l -7.413,5 V 330.09 L 21.049,357.76 32,330.09 V 66.34 Z"
         id="path29" /></g><g
       id="wood_1_"
       style="stroke-width:1.65564764"><path
         style="fill:#fcc865;stroke-width:1.65564764"
         d="m 32,66.34 v 263.75 c 0,0 -3.756,-1.068 -4.531,-1.902 -0.851,-0.916 -1.969,-5.098 -1.969,-5.098 0,0 -3.249,1.918 -4.332,1.949 -1.011,0.029 -4.043,-1.699 -4.043,-1.699 0,0 -1.752,3.848 -2.683,4.695 -0.922,0.84 -4.73,2.055 -4.73,2.055 V 66.34 l 7.413,-5 h 7.125 z"
         id="path32" /></g><g
       id="border_15_"
       style="stroke-width:1.65564764"><path
         style="fill:#333333;stroke-width:1.65564764"
         d="M 23.072,65.34 28,68.52 v 260.807 l -7.015,17.727 -7.272,-17.75 V 68.467 l 4.636,-3.127 h 4.723 m 1.178,-4 h -7.125 l -7.413,5 V 330.09 L 21.049,357.76 32,330.09 V 66.34 Z"
         id="path35" /></g><path
       style="fill:none;stroke:#333333;stroke-width:3.31129527;stroke-miterlimit:10"
       id="border_14_"
       stroke-miterlimit="10"
       d="m 31,330.09 c -3.729,-0.324 -4.81,-3.785 -5.5,-7 -3.125,2.5 -5.125,2.625 -8.375,0.25 -1.625,4.375 -2.75,5.213 -6.375,6.918" /><path
       style="fill:#333333;stroke-width:1.65564764"
       id="tip_2_"
       d="M 21.049,357.76 27,342.473 c 0,0 -1.583,-3.713 -5.951,-3.713 -4.299,0 -6.049,3.713 -6.049,3.713 z" /><line
       style="fill:none;stroke:#333333;stroke-width:3.31129527;stroke-linecap:round;stroke-miterlimit:10"
       id="border_13_"
       stroke-miterlimit="10"
       x1="17.125"
       y1="63.34"
       x2="17.125"
       y2="269.34" /><line
       style="fill:none;stroke:#333333;stroke-width:3.31129527;stroke-linecap:round;stroke-miterlimit:10"
       id="border_12_"
       stroke-miterlimit="10"
       x1="24.125"
       y1="63.34"
       x2="24.125"
       y2="269.34" /></g><g
     transform="matrix(0.41796523,0.41796522,-0.42992351,0.42992352,392.5947,748.00758)"
     id="Highlighters_Closed_1_-2"
     style="stroke-width:1.66808939"><g
       id="_x33__1_"
       style="stroke-width:1.66808939"><path
         style="fill:#4ba7af;stroke-width:1.66808939"
         id="background_10_"
         d="m 64.514,326.436 c 3.131,0 5.67,-2.539 5.67,-5.67 0,0 10.781,-96.986 9.654,-193.136 C 79.16,69.79 66.514,23.109 66.184,21.947 c -0.879,-3.096 -1.264,-4.126 -5.67,-5.669 -3.828,-1.341 -27.446,-1.341 -31.918,0 -4.471,1.341 -4.791,2.573 -5.668,5.669 -0.33,1.162 -12.977,47.843 -13.657,105.683 -1.127,96.149 9.656,193.136 9.656,193.136 0,3.131 2.537,5.67 5.668,5.67 2.841,0 42.997,0 39.919,0 z" /><path
         style="fill:#333333;stroke-width:1.66808939"
         id="border_28_"
         d="m 44.555,121.793 c 13.459,0 26.674,3.545 35.289,6.446 -0.002,-0.202 -0.004,-0.407 -0.006,-0.609 -0.074,-6.392 -0.297,-12.647 -0.631,-18.721 -7.936,-2.833 -19.891,-5.866 -34.652,-5.866 -14.761,0 -26.717,3.033 -34.651,5.866 -0.335,6.073 -0.556,12.329 -0.632,18.721 -0.002,0.202 -0.004,0.407 -0.006,0.609 8.615,-2.901 21.832,-6.446 35.289,-6.446 z" /><path
         style="fill:#4ba7af;stroke-width:1.66808939"
         id="clip_background_2_"
         d="m 55.227,29.627 c -0.5,-2.167 -1,-4 -2.166,-4 -1.168,0 -8.334,0 -8.334,0 0,0 -7.166,0 -8.332,0 -1.168,0 -1.668,1.833 -2.168,4 -0.499,2.167 -3.166,67.834 -3.166,73.834 0,6 7,10.333 13.666,10.333 6.668,0 13.668,-4.333 13.668,-10.333 0,-6 -2.668,-71.667 -3.168,-73.834 z" /><path
         style="fill:#58b6b4;stroke-width:1.66808939"
         id="light_3_"
         d="m 44.727,25.627 c 0,0 -7.166,0 -8.332,0 -1.168,0 -1.668,1.833 -2.168,4 -0.233,1.016 -0.943,4.007 -1.633,18.141 3.217,0.59 7.238,1.025 12.133,1.025 5.252,0 9.201,-0.498 12.129,-1.154 -0.688,-14.084 -1.395,-16.999 -1.629,-18.012 -0.5,-2.167 -1,-4 -2.166,-4 -1.168,0 -8.334,0 -8.334,0 z" /><path
         style="fill:none;stroke:#333333;stroke-width:6.67235756;stroke-miterlimit:10"
         id="clip_border_2_"
         stroke-miterlimit="10"
         d="m 55.227,29.627 c -0.5,-2.167 -1,-4 -2.166,-4 -1.168,0 -8.334,0 -8.334,0 0,0 -7.166,0 -8.332,0 -1.168,0 -1.668,1.833 -2.168,4 -0.499,2.167 -3.166,67.834 -3.166,73.834 0,6 7,10.333 13.666,10.333 6.668,0 13.668,-4.333 13.668,-10.333 0,-6 -2.668,-71.667 -3.168,-73.834 z" /><path
         style="fill:none;stroke:#333333;stroke-width:6.67235756;stroke-miterlimit:10"
         id="border_27_"
         stroke-miterlimit="10"
         d="m 64.514,326.436 c 3.131,0 5.67,-2.539 5.67,-5.67 0,0 10.781,-96.986 9.654,-193.136 C 79.16,69.79 66.514,23.109 66.184,21.947 c -0.879,-3.096 -1.264,-4.126 -5.67,-5.669 -3.828,-1.341 -27.446,-1.341 -31.918,0 -4.471,1.341 -4.791,2.573 -5.668,5.669 -0.33,1.162 -12.977,47.843 -13.657,105.683 -1.127,96.149 9.656,193.136 9.656,193.136 0,3.131 2.537,5.67 5.668,5.67 2.841,0 42.997,0 39.919,0 z" /></g></g></g></svg>