<?xml version="1.0" encoding="UTF-8" standalone="no"?>
<svg
   xmlns:dc="http://purl.org/dc/elements/1.1/"
   xmlns:cc="http://creativecommons.org/ns#"
   xmlns:rdf="http://www.w3.org/1999/02/22-rdf-syntax-ns#"
   xmlns:svg="http://www.w3.org/2000/svg"
   xmlns="http://www.w3.org/2000/svg"
   width="150"
   height="150"
   viewBox="0 0 39.687499 39.687499"
   version="1.1"
   id="svg8">
  <defs
     id="defs2">
    <marker
       style="overflow:visible"
       id="marker1195"
       refX="0"
       refY="0"
       orient="auto">
      <path
         transform="matrix(0.8,0,0,0.8,10,0)"
         style="fill:#000000;fill-opacity:1;fill-rule:evenodd;stroke:none;stroke-width:1.00000003pt;stroke-opacity:1"
         d="M 0,0 5,-5 -12.5,0 5,5 Z"
         id="path1193" />
    </marker>
    <marker
       orient="auto"
       refY="0"
       refX="0"
       id="marker1119"
       style="overflow:visible">
      <path
         id="path1117"
         d="M 0,0 5,-5 -12.5,0 5,5 Z"
         style="fill:#000000;fill-opacity:1;fill-rule:evenodd;stroke:none;stroke-width:1.00000003pt;stroke-opacity:1"
         transform="matrix(0.8,0,0,0.8,10,0)" />
    </marker>
    <marker
       orient="auto"
       refY="0"
       refX="0"
       id="marker1097"
       style="overflow:visible">
      <path
         id="path1095"
         d="M 0,0 5,-5 -12.5,0 5,5 Z"
         style="fill:#000000;fill-opacity:1;fill-rule:evenodd;stroke:none;stroke-width:1.00000003pt;stroke-opacity:1"
         transform="matrix(0.8,0,0,0.8,10,0)" />
    </marker>
    <marker
       orient="auto"
       refY="0"
       refX="0"
       id="Arrow1Lstart"
       style="overflow:visible">
      <path
         id="path819"
         d="M 0,0 5,-5 -12.5,0 5,5 Z"
         style="fill:#000000;fill-opacity:1;fill-rule:evenodd;stroke:none;stroke-width:1.00000003pt;stroke-opacity:1"
         transform="matrix(0.8,0,0,0.8,10,0)" />
    </marker>
  </defs>
  <metadata
     id="metadata5">
    <rdf:RDF>
      <cc:Work
         rdf:about="">
        <dc:format>image/svg+xml</dc:format>
        <dc:type
           rdf:resource="http://purl.org/dc/dcmitype/StillImage" />
        <dc:title></dc:title>
      </cc:Work>
    </rdf:RDF>
  </metadata>
  <g
     id="layer1"
     transform="translate(0,-257.3125)">
    <g
       transform="translate(-6.6143047,6.6209204)"
       id="g876">
      <path
         id="path1959"
         d="m 25.599638,256.86484 a 0.28897099,0.28897099 0 0 0 -0.0055,2e-4 l 5.47e-4,3.8e-4 a 0.28897099,0.28897099 0 0 0 -0.01434,5.4e-4 h -5.36e-4 a 0.28897099,0.28897099 0 0 0 -0.0066,5.4e-4 c -0.0077,0.001 -0.02168,0.001 -0.03985,0.004 a 0.28897099,0.28897099 0 0 0 -0.0011,5.4e-4 c -0.256346,0.0291 -0.517379,0.12701 -0.753581,0.30775 a 0.28897099,0.28897099 0 0 0 -0.09175,0.1189 c -0.330596,-0.10762 -0.683764,-0.16678 -1.049299,-0.10401 a 0.28897099,0.28897099 0 0 0 -0.117381,0.004 c -1.91e-4,8e-5 -4.83e-4,-5e-5 -6.47e-4,0 a 0.28897099,0.28897099 0 0 0 -0.0069,0.002 c -0.0071,0.002 -0.01964,0.004 -0.03784,0.0101 a 0.28897099,0.28897099 0 0 0 -0.0013,5.4e-4 c -0.246224,0.0702 -0.486501,0.20928 -0.689058,0.42515 a 0.28897099,0.28897099 0 0 0 -0.06959,0.13015 c -0.342685,-0.0529 -0.701315,-0.0562 -1.052307,0.0633 a 0.28897099,0.28897099 0 0 0 -0.111553,0.0228 0.28897099,0.28897099 0 0 0 -0.0079,0.003 c -0.0069,0.003 -0.01878,0.009 -0.03558,0.0162 a 0.28897099,0.28897099 0 0 0 -0.0013,0 c -0.231991,0.10739 -0.447286,0.28251 -0.614379,0.5269 a 0.28897099,0.28897099 0 0 0 -0.04887,0.13939 c -0.347048,-5.3e-4 -0.702412,0.049 -1.032365,0.21896 a 0.28897099,0.28897099 0 0 0 -0.10741,0.0383 c -2.89e-4,1.8e-4 -4.83e-4,5.3e-4 -6.47e-4,5.3e-4 -1.91e-4,10e-5 -5.93e-4,-1e-4 -6.47e-4,0 a 0.28897099,0.28897099 0 0 0 -0.0053,0.004 c -0.0066,0.004 -0.01726,0.0109 -0.03274,0.0205 a 0.28897099,0.28897099 0 0 0 -0.0013,5.4e-4 c -0.213933,0.14048 -0.401734,0.34483 -0.531794,0.61136 a 0.28897099,0.28897099 0 0 0 -0.02857,0.1458 c -0.344013,0.0491 -0.688905,0.14924 -0.991733,0.364 a 0.28897099,0.28897099 0 0 0 -0.10233,0.0542 c -2.92e-4,1.8e-4 -4.83e-4,5.3e-4 -6.48e-4,5.3e-4 a 0.28897099,0.28897099 0 0 0 -0.0053,0.004 c -0.0059,0.004 -0.01567,0.0133 -0.02969,0.0256 a 0.28897099,0.28897099 0 0 0 -6.47e-4,5.4e-4 c -0.192193,0.16953 -0.349947,0.39867 -0.441499,0.68115 a 0.28897099,0.28897099 0 0 0 -0.0071,0.14862 c -0.335105,0.0968 -0.663527,0.24401 -0.934172,0.49981 a 0.28897099,0.28897099 0 0 0 -0.0918,0.0667 0.28897099,0.28897099 0 0 0 -0.0053,0.005 c -0.0053,0.005 -0.01389,0.0157 -0.0256,0.0293 a 0.28897099,0.28897099 0 0 0 -0.0013,10e-4 c -0.166821,0.19462 -0.291187,0.44351 -0.342737,0.7359 a 0.28897099,0.28897099 0 0 0 0.01277,0.14786 c -0.317604,0.142 -0.620577,0.33366 -0.852341,0.62358 a 0.28897099,0.28897099 0 0 0 -0.0839,0.0811 0.28897099,0.28897099 0 0 0 -0.0046,0.005 c -0.0039,0.006 -0.01137,0.0172 -0.02123,0.0325 a 0.28897099,0.28897099 0 0 0 -6.48e-4,5.5e-4 c -0.137812,0.21584 -0.226117,0.47956 -0.236084,0.77579 a 0.28897099,0.28897099 0 0 0 0.03425,0.14428 c -0.292661,0.18457 -0.563601,0.41632 -0.750946,0.73439 a 0.28897099,0.28897099 0 0 0 -0.0775,0.10182 c -0.0032,0.006 -0.0088,0.0184 -0.01633,0.0348 a 0.28897099,0.28897099 0 0 0 -5.93e-4,10e-4 c -0.105057,0.23312 -0.15356,0.5058 -0.120206,0.79985 a 0.28897099,0.28897099 0 0 0 0.05397,0.1379 c -0.26223,0.22616 -0.496667,0.49621 -0.633374,0.8403 a 0.28897099,0.28897099 0 0 0 -0.05622,0.10105 0.28897099,0.28897099 0 0 0 -6.47e-4,0.001 0.28897099,0.28897099 0 0 0 -0.0019,0.006 c -0.0026,0.0101 -0.0059,0.0206 -0.0099,0.0339 a 0.28897099,0.28897099 0 0 0 -0.0013,0.004 c -0.0682,0.24625 -0.07482,0.52351 0.0032,0.80908 a 0.28897099,0.28897099 0 0 0 0.07543,0.12791 c -0.224185,0.26548 -0.41341,0.57089 -0.493426,0.93493 a 0.28897099,0.28897099 0 0 0 -0.03914,0.10816 0.28897099,0.28897099 0 0 0 -6.49e-4,10e-4 0.28897099,0.28897099 0 0 0 -6.47e-4,0.006 c -0.0013,0.009 -0.0026,0.0217 -0.0046,0.0399 a 0.28897099,0.28897099 0 0 0 -6.47e-4,10e-4 c -0.02812,0.25539 0.01073,0.53137 0.135821,0.80192 a 0.28897099,0.28897099 0 0 0 0.1059,0.12154 c -0.129247,0.21932 -0.260437,0.44264 -0.319978,0.70466 a 0.28897099,0.28897099 0 0 0 0,0.002 c -0.02475,0.11278 -0.03155,0.23083 -0.03275,0.3497 a 0.28897099,0.28897099 0 0 0 -0.0071,0.0704 c 2.6e-5,5.3e-4 -2.7e-5,10e-4 0,0.002 a 0.28897099,0.28897099 0 0 0 0,0.005 l 0.0019,0.0383 a 0.28897099,0.28897099 0 0 0 6.47e-4,0.004 c 0.01798,0.25821 0.105605,0.52416 0.27653,0.76844 a 0.28897099,0.28897099 0 0 0 0.115126,0.0961 c -0.121932,0.32735 -0.196354,0.68003 -0.14786,1.04929 a 0.28897099,0.28897099 0 0 0 0,0.11457 0.28897099,0.28897099 0 0 0 0,10e-4 0.28897099,0.28897099 0 0 0 0.0013,0.006 c 0.0019,0.008 0.0046,0.0208 0.0084,0.0378 a 0.28897099,0.28897099 0 0 0 6.47e-4,0.002 c 0.06026,0.24913 0.189786,0.49483 0.397483,0.70599 a 0.28897099,0.28897099 0 0 0 0.127916,0.0754 c -0.07339,0.37673 -0.108483,0.7767 0.04041,1.16744 a 0.28897099,0.28897099 0 0 0 0.0032,0.006 c 0.0026,0.008 0.0071,0.0192 0.01409,0.0364 a 0.28897099,0.28897099 0 0 0 6.48e-4,0.001 c 0.0046,0.0116 0.01964,0.0198 0.0248,0.0314 0.09999,0.22288 0.251694,0.43549 0.477811,0.6029 a 0.28897099,0.28897099 0 0 0 0.137322,0.0548 c -0.01336,0.34521 0.0244,0.69989 0.180585,1.03443 a 0.28897099,0.28897099 0 0 0 0,5.4e-4 0.28897099,0.28897099 0 0 0 0.03612,0.11306 0.28897099,0.28897099 0 0 0 0.0032,0.006 c 0.0032,0.005 0.0096,0.0173 0.01918,0.0334 a 0.28897099,0.28897099 0 0 0 6.47e-4,5.3e-4 c 0.132593,0.21879 0.330024,0.41454 0.591619,0.55398 a 0.28897099,0.28897099 0 0 0 0.14428,0.0334 c 0.03691,0.34566 0.125688,0.69366 0.329952,1.00397 a 0.28897099,0.28897099 0 0 0 0.04968,0.10302 0.28897099,0.28897099 0 0 0 6.47e-4,5.4e-4 c 9.9e-5,1.9e-4 -9.3e-5,3.9e-4 0,5.5e-4 a 0.28897099,0.28897099 0 0 0 0.0039,0.004 c 0.0046,0.005 0.0123,0.0162 0.02408,0.0307 a 0.28897099,0.28897099 0 0 0 6.48e-4,10e-4 c 0.162635,0.19796 0.386463,0.36294 0.665544,0.46427 a 0.28897099,0.28897099 0 0 0 0.147859,0.0131 c 0.08493,0.33746 0.221098,0.66925 0.466336,0.94827 a 0.28897099,0.28897099 0 0 0 0.06548,0.0974 0.28897099,0.28897099 0 0 0 0.0046,0.004 c 0.0053,0.004 0.01449,0.0145 0.02784,0.0269 a 0.28897099,0.28897099 0 0 0 0.0013,5.5e-4 c 0.188714,0.17349 0.43263,0.30662 0.723101,0.36831 a 0.28897099,0.28897099 0 0 0 0.148614,-0.009 c 0.144974,0.35741 0.333378,0.71301 0.671187,0.96182 a 0.28897099,0.28897099 0 0 0 0.0053,0.003 c 0.0066,0.004 0.0168,0.013 0.03195,0.0236 a 0.28897099,0.28897099 0 0 0 0.0013,5.4e-4 c 0.0104,0.008 0.02705,0.005 0.03764,0.013 0.205097,0.13368 0.447425,0.23069 0.728749,0.25017 a 0.28897099,0.28897099 0 0 0 0.145788,-0.0283 c 0.174593,0.30022 0.396862,0.58101 0.709564,0.77993 a 0.28897099,0.28897099 0 0 0 0.08954,0.0746 0.28897099,0.28897099 0 0 0 0.0066,0.003 c 0.007,0.003 0.01818,0.0101 0.03425,0.0178 a 0.28897099,0.28897099 0 0 0 0.0013,5.5e-4 c 0.229159,0.11357 0.500351,0.17228 0.795533,0.14994 a 0.28897099,0.28897099 0 0 0 0.140146,-0.049 c 0.216196,0.27077 0.476858,0.5157 0.815468,0.66554 a 0.28897099,0.28897099 0 0 0 0.09821,0.0596 0.28897099,0.28897099 0 0 0 6.47e-4,0 c 2.85e-4,10e-5 1.91e-4,5.6e-4 5.93e-4,5.6e-4 a 0.28897099,0.28897099 0 0 0 0.0066,0.002 c 0.0072,0.002 0.01957,0.006 0.03684,0.0129 a 0.28897099,0.28897099 0 0 0 0.0013,0 c 0.243473,0.078 0.520049,0.0954 0.808326,0.0283 a 0.28897099,0.28897099 0 0 0 0.131494,-0.0697 c 0.255061,0.23356 0.55126,0.43395 0.909335,0.52897 a 0.28897099,0.28897099 0 0 0 0.10741,0.0447 0.28897099,0.28897099 0 0 0 0.0026,5.4e-4 0.28897099,0.28897099 0 0 0 0.0066,0.001 c 0.0053,5.5e-4 0.01944,0.003 0.04041,0.006 0.253553,0.0386 0.530751,0.0117 0.805688,-0.1016 a 0.28897099,0.28897099 0 0 0 0.118698,-0.0911 c 0.29335,0.19058 0.62319,0.34124 0.998125,0.37473 a 0.28897099,0.28897099 0 0 0 0.11306,0.0255 0.28897099,0.28897099 0 0 0 0.0011,0 0.28897099,0.28897099 0 0 0 0.0077,0 c 0.0077,-8e-5 0.02102,2.8e-4 0.03974,0 a 0.28897099,0.28897099 0 0 0 0.0011,0 c 0.05223,-10e-4 0.104773,-0.004 0.157815,-0.0112 a 0.28897099,0.28897099 0 0 0 0.0032,0 c 0.209916,-0.0279 0.42281,-0.10291 0.624165,-0.2312 a 0.28897099,0.28897099 0 0 0 0.101051,-0.11231 c 0.32257,0.13619 0.672248,0.22489 1.043647,0.19208 a 0.28897099,0.28897099 0 0 0 0.118698,0.004 0.28897099,0.28897099 0 0 0 0.0066,-5.3e-4 c 0.0055,-0.001 0.01993,-0.003 0.04061,-0.008 0.251825,-0.05 0.50272,-0.16995 0.722347,-0.36907 a 0.28897099,0.28897099 0 0 0 0.08036,-0.12434 c 0.336924,0.0797 0.693126,0.11021 1.051542,0.0191 a 0.28897099,0.28897099 0 0 0 5.46e-4,0 0.28897099,0.28897099 0 0 0 0.114374,-0.0136 0.28897099,0.28897099 0 0 0 0.0022,-5.3e-4 h 5.37e-4 a 0.28897099,0.28897099 0 0 0 0.0066,-0.002 c 0.0066,-0.002 0.01927,-0.006 0.0369,-0.0134 a 0.28897099,0.28897099 0 0 0 0.0011,0 c 0.239608,-0.0893 0.46772,-0.24688 0.652751,-0.47782 a 0.28897099,0.28897099 0 0 0 0.05967,-0.13582 c 0.34544,0.0264 0.702739,0.002 1.043647,-0.14221 a 0.28897099,0.28897099 0 0 0 0.10948,-0.0307 0.28897099,0.28897099 0 0 0 0.0022,-5.4e-4 0.28897099,0.28897099 0 0 0 0.0066,-0.003 c 0.0066,-0.003 0.01752,-0.009 0.0335,-0.0176 a 0.28897099,0.28897099 0 0 0 0.0011,-0.001 c 0.223426,-0.12445 0.425734,-0.31391 0.574506,-0.57016 a 0.28897099,0.28897099 0 0 0 0.03908,-0.14297 c 0.38343,-0.0271 0.779243,-0.0967 1.119835,-0.34048 a 0.28897099,0.28897099 0 0 0 0.0055,-0.004 l 5.37e-4,-5.6e-4 c 0.0066,-0.004 0.01675,-0.0113 0.03065,-0.022 a 0.28897099,0.28897099 0 0 0 0.0011,-10e-4 c 0.0077,-0.005 0.01106,-0.0197 0.01916,-0.0261 0.192925,-0.15402 0.362049,-0.35729 0.468584,-0.62153 a 0.28897099,0.28897099 0 0 0 0.01763,-0.1471 c 0.341216,-0.0733 0.67918,-0.19819 0.967089,-0.4351 a 0.28897099,0.28897099 0 0 0 0.09448,-0.0583 0.28897099,0.28897099 0 0 0 0.0011,-10e-4 h 5.37e-4 a 0.28897099,0.28897099 0 0 0 0.0055,-0.005 c 0.0044,-0.004 0.01401,-0.014 0.02715,-0.0271 a 0.28897099,0.28897099 0 0 0 0.0011,-5.5e-4 c 0.179951,-0.18256 0.320841,-0.42194 0.392593,-0.71013 a 0.28897099,0.28897099 0 0 0 -0.0022,-0.14861 c 0.327179,-0.11968 0.643893,-0.28976 0.895795,-0.5632 a 0.28897099,0.28897099 0 0 0 0.089,-0.0744 0.28897099,0.28897099 0 0 0 0.0044,-0.004 c 0.0044,-0.005 0.01292,-0.016 0.0243,-0.0312 a 0.28897099,0.28897099 0 0 0 5.37e-4,-0.001 c 0.0066,-0.009 0.0055,-0.0246 0.01281,-0.0339 0.141864,-0.20082 0.247699,-0.44134 0.277269,-0.72311 a 0.28897099,0.28897099 0 0 0 -0.02277,-0.14654 c 0.306356,-0.16385 0.594583,-0.37639 0.804763,-0.68172 a 0.28897099,0.28897099 0 0 0 0.07751,-0.086 0.28897099,0.28897099 0 0 0 0.0044,-0.006 c 0.0032,-0.006 0.0098,-0.0179 0.01916,-0.0339 a 0.28897099,0.28897099 0 0 0 5.48e-4,-10e-4 c 0.121894,-0.22499 0.190538,-0.49324 0.179086,-0.78914 a 0.28897099,0.28897099 0 0 0 -0.04402,-0.14146 c 0.279043,-0.20613 0.533331,-0.4584 0.696017,-0.79139 a 0.28897099,0.28897099 0 0 0 0.06393,-0.0967 0.28897099,0.28897099 0 0 0 0.0022,-0.006 c 0.0022,-0.008 0.0077,-0.0187 0.01358,-0.0362 a 0.28897099,0.28897099 0 0 0 5.46e-4,-10e-4 c 0.08725,-0.2403 0.115272,-0.51643 0.05967,-0.80702 a 0.28897099,0.28897099 0 0 0 -0.06393,-0.133 c 0.243635,-0.24564 0.455314,-0.53344 0.56452,-0.88733 a 0.28897099,0.28897099 0 0 0 0.04905,-0.10718 0.28897099,0.28897099 0 0 0 0.0011,-0.006 c 0.0011,-0.009 0.0044,-0.0213 0.0077,-0.0378 a 0.28897099,0.28897099 0 0 0 5.36e-4,-0.002 c 0.04872,-0.25143 0.03328,-0.52885 -0.06832,-0.80775 a 0.28897099,0.28897099 0 0 0 -0.08594,-0.12227 c 0.202198,-0.28417 0.366526,-0.60604 0.415913,-0.97762 a 0.28897099,0.28897099 0 0 0 0.03044,-0.11155 0.28897099,0.28897099 0 0 0 0,-10e-4 0.28897099,0.28897099 0 0 0 0,-0.009 c 1.97e-4,-0.008 5.37e-4,-0.0199 0.0011,-0.0385 a 0.28897099,0.28897099 0 0 0 0,-5.4e-4 c 0.0066,-0.25819 -0.05517,-0.53219 -0.204093,-0.79272 a 0.28897099,0.28897099 0 0 0 -0.109479,-0.10816 c 0.15013,-0.31663 0.253249,-0.66232 0.236826,-1.03443 a 0.28897099,0.28897099 0 0 0 5.37e-4,-10e-4 0.28897099,0.28897099 0 0 0 0.0098,-0.12079 0.28897099,0.28897099 0 0 0 0,-0.002 c -0.0011,-0.0142 -0.0032,-0.0283 -0.0055,-0.0411 a 0.28897099,0.28897099 0 0 0 -5.37e-4,-0.003 c -0.03974,-0.25422 -0.148838,-0.50999 -0.338981,-0.73797 a 0.28897099,0.28897099 0 0 0 -0.122278,-0.0864 c 0.0935,-0.334 0.138239,-0.68941 0.06109,-1.05155 a 0.28897099,0.28897099 0 0 0 0,-5.4e-4 0.28897099,0.28897099 0 0 0 -0.0088,-0.11588 0.28897099,0.28897099 0 0 0 0,-0.001 0.28897099,0.28897099 0 0 0 -0.0022,-0.006 c -0.0022,-0.006 -0.0066,-0.0194 -0.01226,-0.0372 a 0.28897099,0.28897099 0 0 0 0,-10e-4 c -0.07992,-0.24303 -0.22844,-0.47733 -0.452041,-0.67119 a 0.28897099,0.28897099 0 0 0 -0.132996,-0.0647 c 0.03963,-0.34383 0.02868,-0.70086 -0.103021,-1.04665 a 0.28897099,0.28897099 0 0 0 0,-0.001 0.28897099,0.28897099 0 0 0 -0.02705,-0.11248 0.28897099,0.28897099 0 0 0 -0.0032,-0.006 c -0.0032,-0.006 -0.0087,-0.0184 -0.01719,-0.035 a 0.28897099,0.28897099 0 0 0 -5.46e-4,-10e-4 c -0.11606,-0.22783 -0.298398,-0.43646 -0.548921,-0.59443 a 0.28897099,0.28897099 0 0 0 -0.140703,-0.0442 c -0.01204,-0.34758 -0.07499,-0.70103 -0.257343,-1.02522 a 0.28897099,0.28897099 0 0 0 -0.04193,-0.10378 0.28897099,0.28897099 0 0 0 -5.35e-4,-0.001 0.28897099,0.28897099 0 0 0 -0.0044,-0.006 c -0.0044,-0.006 -0.01149,-0.0177 -0.022,-0.0327 a 0.28897099,0.28897099 0 0 0 -5.36e-4,-5.4e-4 c -0.148127,-0.20885 -0.3587,-0.38921 -0.629827,-0.50979 a 0.28897099,0.28897099 0 0 0 -0.146527,-0.0233 c -0.0612,-0.34281 -0.173689,-0.68429 -0.399546,-0.97989 a 0.28897099,0.28897099 0 0 0 -0.05617,-0.098 0.28897099,0.28897099 0 0 0 -0.0011,-10e-4 0.28897099,0.28897099 0 0 0 -0.0044,-0.005 c -0.0044,-0.005 -0.01369,-0.0155 -0.02639,-0.0293 a 0.28897099,0.28897099 0 0 0 -0.0011,-5.3e-4 c -0.176175,-0.18619 -0.410494,-0.33555 -0.696017,-0.41724 a 0.28897099,0.28897099 0 0 0 -0.148618,-0.002 c -0.108167,-0.3307 -0.267077,-0.65254 -0.531053,-0.91366 a 0.28897099,0.28897099 0 0 0 -0.07182,-0.0924 0.28897099,0.28897099 0 0 0 -0.0044,-0.004 c -0.0055,-0.004 -0.01577,-0.0135 -0.02989,-0.0248 a 0.28897099,0.28897099 0 0 0 -0.0011,-5.3e-4 c -0.200293,-0.15991 -0.453278,-0.27566 -0.747187,-0.31697 a 0.28897099,0.28897099 0 0 0 -0.147097,0.0185 c -0.152889,-0.31211 -0.354506,-0.60778 -0.652006,-0.82903 a 0.28897099,0.28897099 0 0 0 -0.08463,-0.0818 0.28897099,0.28897099 0 0 0 -0.0055,-0.004 c -0.0066,-0.004 -0.01774,-0.0109 -0.0335,-0.0199 a 0.28897099,0.28897099 0 0 0 -0.0011,-5.4e-4 c -0.220526,-0.12998 -0.48666,-0.20837 -0.782922,-0.20767 a 0.28897099,0.28897099 0 0 0 -0.142784,0.0383 c -0.196154,-0.28719 -0.43897,-0.55134 -0.766555,-0.7265 a 0.28897099,0.28897099 0 0 0 -0.08879,-0.0647 0.28897099,0.28897099 0 0 0 -5.47e-4,0 0.28897099,0.28897099 0 0 0 -0.0088,-0.004 c -0.0066,-0.002 -0.01905,-0.009 -0.03635,-0.0157 a 0.28897099,0.28897099 0 0 0 -0.0011,-5.4e-4 c -0.236826,-0.0962 -0.51092,-0.13473 -0.803438,-0.0903 a 0.28897099,0.28897099 0 0 0 -0.135623,0.0591 c -0.236695,-0.25387 -0.516777,-0.47801 -0.867397,-0.60084 a 0.28897099,0.28897099 0 0 0 -0.09667,-0.0499 0.28897099,0.28897099 0 0 0 -0.0044,-10e-4 0.28897099,0.28897099 0 0 0 -0.0077,-0.002 c -0.0077,-10e-4 -0.01927,-0.005 -0.03767,-0.0101 a 0.28897099,0.28897099 0 0 0 -0.0011,0 c -0.249055,-0.0587 -0.526641,-0.0543 -0.809076,0.0355 a 0.28897099,0.28897099 0 0 0 -0.125091,0.0804 c -0.274554,-0.21314 -0.588213,-0.38924 -0.955616,-0.4543 a 0.28897099,0.28897099 0 0 0 -0.112304,-0.0355 0.28897099,0.28897099 0 0 0 -0.0077,-5.5e-4 c -0.0077,-5.3e-4 -0.0208,-0.002 -0.03908,-0.004 a 0.28897099,0.28897099 0 0 0 -0.0011,0 c -0.256927,-0.0174 -0.532773,0.0328 -0.798534,0.16987 a 0.28897099,0.28897099 0 0 0 -0.106633,0.0946 c -0.04839,-0.0257 -0.09481,-0.0538 -0.145028,-0.0775 a 0.28897099,0.28897099 0 0 0 -5.48e-4,-5.4e-4 c -0.257484,-0.12004 -0.549883,-0.17144 -0.848204,-0.17928 a 0.28897099,0.28897099 0 0 0 -0.13882,-0.0342 z m 0.112687,0.28518 c 0.256314,0.001 0.509771,0.0773 0.75264,0.19056 0.09941,0.0469 0.196745,0.0995 0.291949,0.15558 0.242257,0.14255 0.469832,0.3057 0.689055,0.446 -0.349536,0.22199 -0.654951,0.2232 -0.981004,0.12304 -0.0139,-0.004 -0.0277,-0.009 -0.04149,-0.0136 -0.348353,-0.1182 -0.715833,-0.3421 -1.11193,-0.51109 -0.117636,-0.0502 -0.237199,-0.0955 -0.35836,-0.13187 0.196166,-0.15011 0.403477,-0.22734 0.610809,-0.25075 0.01281,-0.001 0.02551,-0.002 0.03843,-0.004 0.03667,-0.002 0.07346,-0.004 0.110049,-0.004 z m 1.827894,0.0279 c 0.02627,7e-5 0.05223,0.001 0.07828,0.002 0.01281,0.001 0.02584,0.002 0.03854,0.003 0.398364,0.0396 0.752968,0.26724 1.069244,0.535 0.212434,0.17982 0.408107,0.37783 0.600266,0.5521 -0.396076,0.1662 -0.706002,0.10247 -1.019945,-0.0668 -0.320633,-0.17289 -0.641978,-0.45515 -1.003217,-0.69149 -0.10729,-0.0702 -0.21758,-0.13614 -0.331264,-0.19376 0.192936,-0.0994 0.384186,-0.14155 0.568112,-0.14108 z m -3.658432,0.26148 c 0.29614,-0.008 0.599502,0.0713 0.891279,0.18021 0.26111,0.0974 0.512979,0.21834 0.753407,0.31903 -0.31839,0.29012 -0.63149,0.33366 -0.984412,0.27972 -0.360298,-0.0551 -0.757885,-0.21217 -1.17439,-0.3132 -0.123678,-0.03 -0.24844,-0.0551 -0.373406,-0.0713 0.168203,-0.17924 0.358445,-0.28844 0.557379,-0.34517 0.0123,-0.003 0.02474,-0.006 0.03704,-0.0101 0.09643,-0.0243 0.194369,-0.0366 0.293084,-0.0393 z m 5.505891,0.0814 c 0.08047,0.002 0.158373,0.0135 0.233826,0.0312 0.01237,0.002 0.02485,0.006 0.03722,0.0101 0.383847,0.10334 0.695109,0.38328 0.964647,0.6979 0.180938,0.21118 0.343307,0.43769 0.506596,0.64033 -0.418157,0.10236 -0.715581,-0.0109 -0.998324,-0.22894 -0.288883,-0.22278 -0.559244,-0.55352 -0.87379,-0.84482 -0.09339,-0.0865 -0.190209,-0.1692 -0.291576,-0.24435 0.146527,-0.0467 0.287307,-0.065 0.421376,-0.0608 z m -7.146431,0.48534 c 0.201023,-0.002 0.407284,0.0243 0.61043,0.0644 0.272747,0.0539 0.540149,0.13124 0.792894,0.18982 -0.264802,0.338 -0.56712,0.43356 -0.924388,0.43773 -0.36475,0.004 -0.782537,-0.0879 -1.210318,-0.12359 -0.127017,-0.0109 -0.254558,-0.0163 -0.380741,-0.0134 0.138903,-0.20318 0.310044,-0.34022 0.49756,-0.42702 0.01157,-0.005 0.02334,-0.0101 0.03499,-0.0157 0.182681,-0.0778 0.378552,-0.10969 0.579574,-0.11229 z m 3.539732,0.0673 c 0.182055,0.0902 0.358043,0.18667 0.549676,0.25169 0.01588,0.005 0.03164,0.0109 0.04762,0.0157 a 0.28897099,0.28897099 0 0 0 0.0022,5.3e-4 c 0.375067,0.11522 0.807435,0.10752 1.220841,-0.15499 a 0.28897099,0.28897099 0 0 0 0.07324,-0.0683 c 0.162686,0.11938 0.318345,0.24527 0.494924,0.3405 0.357232,0.19261 0.799092,0.27618 1.269011,0.0791 a 0.28897099,0.28897099 0 0 0 0.08463,-0.0548 c 0.140868,0.1444 0.272999,0.29383 0.432281,0.41667 0.322013,0.24829 0.746684,0.4025 1.243437,0.28084 a 0.28897099,0.28897099 0 0 0 0.09382,-0.0419 c 0.117998,0.16569 0.22601,0.33517 0.366253,0.48195 0.282436,0.29563 0.682015,0.51255 1.193766,0.46502 a 0.28897099,0.28897099 0 0 0 0.100829,-0.0292 c 0.09361,0.18263 0.17625,0.36787 0.295156,0.53462 0.2386,0.33459 0.604525,0.6071 1.119638,0.63205 a 0.28897099,0.28897099 0 0 0 0.106086,-0.0149 c 0.06744,0.19464 0.12323,0.39016 0.218215,0.57226 0.190538,0.36526 0.516174,0.68635 1.023141,0.78217 a 0.28897099,0.28897099 0 0 0 0.106634,0 c 0.03996,0.20187 0.06832,0.40343 0.137134,0.5965 0.138196,0.38762 0.416286,0.74848 0.9037,0.91348 a 0.28897099,0.28897099 0 0 0 0.104444,0.0151 c 0.01117,0.20433 0.01138,0.40688 0.05189,0.60647 0.08156,0.40155 0.304375,0.79687 0.76073,1.02937 a 0.28897099,0.28897099 0 0 0 0.09897,0.0293 c -0.01872,0.202 -0.04807,0.40074 -0.03777,0.60233 0.02058,0.40686 0.179996,0.8286 0.593687,1.1268 a 0.28897099,0.28897099 0 0 0 0.09109,0.0442 c -0.0496,0.19532 -0.108275,0.38572 -0.130171,0.58503 -0.04434,0.40338 0.04379,0.84391 0.403137,1.2058 a 0.28897099,0.28897099 0 0 0 0.08101,0.057 c -0.08189,0.18518 -0.170722,0.36432 -0.226852,0.55795 -0.113334,0.39093 -0.104116,0.84171 0.189235,1.26487 a 0.28897099,0.28897099 0 0 0 0.07248,0.0726 c -0.11179,0.16705 -0.229787,0.32796 -0.316965,0.50751 -0.17738,0.36536 -0.241852,0.80993 -0.02562,1.27129 a 0.28897099,0.28897099 0 0 0 0.05758,0.0811 c -0.138644,0.14652 -0.282621,0.28475 -0.398998,0.44865 -0.235185,0.33123 -0.372166,0.76149 -0.231747,1.25265 a 0.28897099,0.28897099 0 0 0 0.04477,0.0911 c -0.160705,0.12382 -0.325209,0.23799 -0.466328,0.38318 -0.284582,0.29273 -0.486912,0.69972 -0.421004,1.20882 a 0.28897099,0.28897099 0 0 0 0.03219,0.0995 c -0.178627,0.0997 -0.360056,0.18852 -0.52201,0.31285 -0.325636,0.24995 -0.585179,0.62575 -0.592186,1.14109 a 0.28897099,0.28897099 0 0 0 0.0185,0.10444 c -0.192137,0.0741 -0.385806,0.13713 -0.56452,0.23834 -0.358393,0.20296 -0.667422,0.53921 -0.745689,1.04929 a 0.28897099,0.28897099 0 0 0 0.0044,0.1074 c -0.200633,0.047 -0.40132,0.0822 -0.592175,0.15783 -0.382807,0.15169 -0.735145,0.4423 -0.883008,0.93567 a 0.28897099,0.28897099 0 0 0 -0.01095,0.1051 c -0.204266,0.0185 -0.40723,0.0254 -0.605728,0.0731 -0.398845,0.0961 -0.785911,0.33333 -1.001707,0.79853 a 0.28897099,0.28897099 0 0 0 -0.0255,0.10085 c -0.203118,-0.0111 -0.403554,-0.0328 -0.60516,-0.0149 -0.406356,0.0362 -0.822094,0.21226 -1.104047,0.6377 a 0.28897099,0.28897099 0 0 0 -0.03985,0.0926 c -0.197436,-0.0418 -0.390547,-0.093 -0.590873,-0.10664 -0.405086,-0.0279 -0.841745,0.0795 -1.18792,0.45354 a 0.28897099,0.28897099 0 0 0 -0.05343,0.0832 c -0.187987,-0.0737 -0.370534,-0.15448 -0.565846,-0.20184 -0.386627,-0.0939 -0.826451,-0.0693 -1.227245,0.22535 a 0.28897099,0.28897099 0 0 0 -5.47e-4,0.001 c -0.0077,0.005 -0.01653,0.012 -0.02485,0.0185 a 0.28897099,0.28897099 0 0 0 -0.06909,0.0754 c -0.173076,-0.10542 -0.342014,-0.21886 -0.524649,-0.29798 -0.373183,-0.16163 -0.820024,-0.20696 -1.272028,0.0283 a 0.28897099,0.28897099 0 0 0 -0.07882,0.0611 c -0.1519,-0.13239 -0.296108,-0.27011 -0.464265,-0.37962 -0.340171,-0.22152 -0.774408,-0.34135 -1.259229,-0.18209 a 0.28897099,0.28897099 0 0 0 -0.08954,0.0483 c -0.129716,-0.1557 -0.249392,-0.31606 -0.399551,-0.45147 -0.302762,-0.273 -0.715702,-0.45893 -1.221423,-0.37454 a 0.28897099,0.28897099 0 0 0 -0.09744,0.0348 c -0.105943,-0.17461 -0.201479,-0.35184 -0.331268,-0.50903 -0.261058,-0.31615 -0.645603,-0.56207 -1.160473,-0.55098 a 0.28897099,0.28897099 0 0 0 -0.103644,0.022 c -0.08068,-0.18916 -0.149577,-0.38041 -0.256773,-0.55531 -0.215104,-0.35096 -0.562405,-0.64821 -1.07488,-0.70881 a 0.28897099,0.28897099 0 0 0 -0.106666,0.006 c -0.05384,-0.19888 -0.09631,-0.39835 -0.178515,-0.58652 -0.164902,-0.3775 -0.467526,-0.71892 -0.96615,-0.84953 a 0.28897099,0.28897099 0 0 0 -0.105901,-0.006 c -0.02566,-0.2038 -0.04041,-0.40664 -0.09538,-0.60365 -0.110416,-0.39563 -0.361342,-0.77509 -0.834662,-0.97404 a 0.28897099,0.28897099 0 0 0 -0.101761,-0.0213 c 0.0039,-0.20391 0.01792,-0.40511 -0.0078,-0.60648 -0.05165,-0.40529 -0.243935,-0.81512 -0.680408,-1.08072 a 0.28897099,0.28897099 0 0 0 -0.09462,-0.0364 c 0.03406,-0.19929 0.0775,-0.3947 0.08315,-0.59576 0.01137,-0.40625 -0.113147,-0.83787 -0.501132,-1.16818 a 0.28897099,0.28897099 0 0 0 -0.08616,-0.0497 c 0.06561,-0.19084 0.138968,-0.37667 0.177768,-0.57373 0.07842,-0.39829 0.0285,-0.84513 -0.29929,-1.23798 a 0.28897099,0.28897099 0 0 0 -0.06601,-0.0581 c 0.01449,-0.0263 0.02751,-0.0517 0.04193,-0.0783 a 0.28897099,0.28897099 0 0 0 6.47e-4,-10e-4 c 0.08231,-0.15245 0.160346,-0.30616 0.221792,-0.46709 0.145364,-0.38073 0.170663,-0.82858 -0.08391,-1.27052 a 0.28897099,0.28897099 0 0 0 -0.06468,-0.0761 c 0.126045,-0.15739 0.25791,-0.3074 0.360423,-0.47989 0.207333,-0.34885 0.309673,-0.78694 0.131488,-1.2647 a 0.28897099,0.28897099 0 0 0 -0.05191,-0.0875 c 0.150126,-0.13529 0.305353,-0.26117 0.434547,-0.41591 0.260921,-0.31252 0.431418,-0.73204 0.328444,-1.23366 a 0.28897099,0.28897099 0 0 0 -0.03916,-0.0953 c 0.170446,-0.1121 0.343994,-0.21392 0.496244,-0.34913 0.306148,-0.27189 0.538277,-0.66374 0.509036,-1.17741 a 0.28897099,0.28897099 0 0 0 -0.0256,-0.10237 c 0.186141,-0.0873 0.374299,-0.16334 0.54534,-0.27652 0.343041,-0.22699 0.628367,-0.58442 0.671187,-1.09858 a 0.28897099,0.28897099 0 0 0 -0.01144,-0.10587 c 0.196942,-0.0608 0.395023,-0.10959 0.580329,-0.19827 0.37164,-0.17785 0.702771,-0.49234 0.816037,-0.99549 a 0.28897099,0.28897099 0 0 0 0.0032,-0.10663 c 0.203048,-0.0328 0.405585,-0.0546 0.600833,-0.11662 0.391887,-0.12445 0.762106,-0.38875 0.944139,-0.86947 a 0.28897099,0.28897099 0 0 0 0.01865,-0.10314 c 0.204098,-0.004 0.405862,0.003 0.606289,-0.03 0.403687,-0.0668 0.80603,-0.27484 1.055131,-0.7216 a 0.28897099,0.28897099 0 0 0 0.03273,-0.0967 c 0.200977,0.0264 0.398429,0.0628 0.600079,0.0605 0.406835,-0.004 0.833921,-0.14754 1.148244,-0.54874 a 0.28897099,0.28897099 0 0 0 0.04683,-0.0882 c 0.193138,0.0576 0.381349,0.12396 0.579582,0.15425 0.401126,0.0613 0.845481,-0.008 1.222923,-0.35196 a 0.28897099,0.28897099 0 0 0 0.05967,-0.0788 z m 5.278464,0.073 c 0.172606,-0.003 0.33064,0.0294 0.474233,0.0877 0.01183,0.004 0.02343,0.0101 0.03514,0.0149 h 1.97e-4 c 0.363188,0.16107 0.62838,0.4853 0.848577,0.83787 0.147765,0.23659 0.27544,0.48568 0.40802,0.71106 -0.430639,0.04 -0.710173,-0.1177 -0.958068,-0.37717 -0.253325,-0.26515 -0.470795,-0.63487 -0.736086,-0.97197 -0.07883,-0.10004 -0.161319,-0.19695 -0.249439,-0.28706 0.06076,-0.009 0.119858,-0.0143 0.17739,-0.0152 z m -10.190857,0.66686 c 0.05178,2.9e-4 0.103722,10e-4 0.155572,0.004 0.278461,0.012 0.555256,0.0472 0.814713,0.0655 -0.209753,0.3762 -0.495689,0.5182 -0.849894,0.57675 -0.3617,0.0597 -0.790559,0.0309 -1.220477,0.0579 -0.127659,0.008 -0.254993,0.021 -0.379801,0.0421 0.108265,-0.22188 0.257711,-0.38297 0.430776,-0.49662 0.01073,-0.006 0.02164,-0.0136 0.03234,-0.0204 0.296715,-0.18182 0.654155,-0.23142 1.016754,-0.22912 z m 11.820111,0.21501 c 0.246636,-5.4e-4 0.457012,0.0624 0.635442,0.16762 0.01094,0.006 0.02179,0.0134 0.03273,0.0199 v 1.9e-4 c 0.336431,0.21271 0.552577,0.57269 0.720846,0.95429 0.112929,0.25609 0.20452,0.52142 0.304562,0.76393 -0.433517,-0.0211 -0.689415,-0.21767 -0.898806,-0.51129 -0.213978,-0.30004 -0.376479,-0.69902 -0.589931,-1.07281 -0.06339,-0.11099 -0.130949,-0.21938 -0.204848,-0.32186 z m -12.548112,0.747 c -0.153257,0.40472 -0.417695,0.5878 -0.761484,0.69696 -0.351163,0.11151 -0.781564,0.14364 -1.20449,0.23101 -0.125575,0.0259 -0.250106,0.0566 -0.370959,0.0951 0.07628,-0.23536 0.201836,-0.4162 0.357419,-0.55342 0.0096,-0.009 0.01944,-0.0166 0.02916,-0.0251 0.306927,-0.25414 0.716971,-0.3484 1.131497,-0.39071 0.278248,-0.0283 0.558291,-0.0336 0.81886,-0.0538 z m 14.214787,0.37548 c 0.244906,0.0344 0.44452,0.12675 0.606671,0.25621 0.0098,0.008 0.01982,0.0164 0.02967,0.0245 0.303621,0.25834 0.46761,0.64562 0.581458,1.04741 0.07642,0.26964 0.130522,0.54562 0.196199,0.79966 -0.426753,-0.0807 -0.653747,-0.31102 -0.820923,-0.63149 -0.17081,-0.32746 -0.276644,-0.74633 -0.435674,-1.14768 -0.04719,-0.11917 -0.09875,-0.23631 -0.157443,-0.34857 z m -15.774814,0.75602 c -0.09535,0.42358 -0.333099,0.64251 -0.659148,0.79855 -0.333127,0.15943 -0.755557,0.25058 -1.162353,0.3956 -0.120792,0.043 -0.239715,0.0906 -0.354026,0.14541 0.04299,-0.24364 0.142031,-0.44006 0.277091,-0.59763 0.0084,-0.0101 0.0172,-0.019 0.0256,-0.0288 0.268804,-0.29447 0.66173,-0.44491 1.067167,-0.54476 0.272106,-0.067 0.549633,-0.11155 0.805686,-0.16837 z m 17.270514,0.59124 c 0.237932,0.0682 0.42303,0.18731 0.565649,0.33804 0.0088,0.0101 0.01719,0.0188 0.02595,0.0283 v 1.8e-4 c 0.264799,0.29797 0.37349,0.70432 0.430409,1.11741 0.0382,0.27725 0.05342,0.55738 0.08299,0.81734 -0.410341,-0.1389 -0.603003,-0.39718 -0.724253,-0.73721 -0.123832,-0.34736 -0.170919,-0.77667 -0.272943,-1.19639 -0.03021,-0.12465 -0.06514,-0.24813 -0.107728,-0.36759 z m -18.661798,0.74871 c -0.03606,0.43271 -0.241503,0.68193 -0.542517,0.88112 -0.307603,0.20353 -0.71254,0.35202 -1.094068,0.5521 -0.1133,0.0593 -0.224212,0.123 -0.329383,0.1932 0.0083,-0.2467 0.07885,-0.45477 0.190369,-0.62943 0.0069,-0.0109 0.01429,-0.0213 0.02123,-0.032 0.22468,-0.32879 0.592385,-0.53227 0.97988,-0.68718 0.260028,-0.1039 0.528528,-0.18622 0.77446,-0.27785 z m 19.955826,0.79269 c 0.225736,0.10044 0.392014,0.24412 0.511861,0.41311 0.0077,0.0109 0.01434,0.0212 0.02168,0.0316 0.219956,0.33161 0.270163,0.74868 0.267699,1.16422 -0.0011,0.27897 -0.0266,0.5573 -0.03514,0.81755 -0.38423,-0.19577 -0.536987,-0.47692 -0.608532,-0.82921 -0.07314,-0.35977 -0.05956,-0.78994 -0.101926,-1.21897 -0.01259,-0.12739 -0.02989,-0.25423 -0.05551,-0.3783 z m -21.147148,0.72443 c 0.0246,0.43225 -0.143282,0.70647 -0.411968,0.94507 -0.274578,0.24386 -0.652496,0.44761 -0.99963,0.70017 -0.103087,0.075 -0.203015,0.15407 -0.296471,0.23871 -0.02772,-0.24452 0.01178,-0.46029 0.0967,-0.64879 0.0053,-0.0117 0.01105,-0.0232 0.0164,-0.0348 0.174541,-0.35708 0.508427,-0.61028 0.869082,-0.81773 0.242031,-0.13921 0.495735,-0.25802 0.725932,-0.38264 z m 22.208487,0.98007 c 0.208319,0.13138 0.351814,0.29739 0.445637,0.48158 0.0055,0.0113 0.01117,0.0228 0.01697,0.0342 h -1.86e-4 c 0.169092,0.35935 0.157838,0.77851 0.0935,1.18774 -0.04325,0.27474 -0.109874,0.5451 -0.158198,0.80005 -0.348473,-0.25117 -0.456125,-0.54989 -0.474244,-0.90709 -0.0185,-0.36469 0.05758,-0.78623 0.07729,-1.2154 0.0055,-0.12742 0.0066,-0.25502 -5.37e-4,-0.38111 z m -23.168989,0.6838 c 0.08666,0.42217 -0.03843,0.71567 -0.267502,0.99003 -0.234066,0.28036 -0.575263,0.53764 -0.878864,0.84012 -0.09016,0.0898 -0.176689,0.1831 -0.255834,0.28123 -0.06508,-0.23712 -0.05893,-0.4565 -0.0039,-0.65558 0.0039,-0.0122 0.0075,-0.0244 0.01094,-0.0367 h 1.92e-4 c 0.118353,-0.37926 0.41022,-0.67935 0.735146,-0.93681 0.218099,-0.1728 0.450864,-0.32654 0.659719,-0.48232 z m 23.966954,1.15313 c 0.18571,0.16101 0.302262,0.34673 0.366823,0.54308 0.0032,0.0122 0.0077,0.0243 0.01139,0.0365 0.112183,0.38118 0.03624,0.79377 -0.09252,1.18794 -0.08638,0.26457 -0.196122,0.52083 -0.286114,0.76486 -0.302996,-0.30513 -0.360177,-0.61596 -0.321115,-0.97066 0.03985,-0.36213 0.180598,-0.76569 0.265051,-1.18586 0.02507,-0.12478 0.04521,-0.25035 0.0566,-0.37586 z m -24.665987,0.62623 c 0.15012,0.40249 0.07361,0.70971 -0.108538,1.01619 -0.186062,0.31306 -0.481588,0.6218 -0.732515,0.9716 -0.07452,0.10389 -0.144882,0.211 -0.207114,0.32167 -0.103765,-0.22447 -0.133122,-0.44333 -0.110423,-0.64974 0.0013,-0.0129 0.0032,-0.0255 0.0046,-0.0382 0.05616,-0.39532 0.297589,-0.73939 0.577882,-1.04422 0.188232,-0.20472 0.393923,-0.3922 0.575819,-0.57732 z m 25.169571,1.3119 c 0.157881,0.18931 0.243341,0.39268 0.275396,0.5982 0.0011,0.0127 0.0032,0.0253 0.0055,0.038 0.04916,0.39716 -0.09459,0.79444 -0.290263,1.1648 -0.131288,0.24847 -0.285446,0.4847 -0.418924,0.71218 -0.247873,-0.35752 -0.248934,-0.67553 -0.148991,-1.02031 0.102036,-0.35206 0.309116,-0.72794 0.460877,-1.13 0.045,-0.11939 0.08506,-0.24051 0.116442,-0.36287 z m -25.576273,0.55229 c 0.214998,0.37326 0.19222,0.68877 0.06436,1.02373 -0.05391,0.14116 -0.126429,0.28478 -0.206361,0.43285 -0.115787,0.21284 -0.24125,0.42662 -0.351957,0.65802 -0.05537,0.11568 -0.105845,0.23345 -0.147481,0.35327 -0.142005,-0.20295 -0.210396,-0.41406 -0.224986,-0.62303 -6.47e-4,-0.013 -0.0013,-0.0259 -0.0019,-0.0388 h 1.91e-4 c -0.0046,-0.11747 0.0077,-0.23431 0.03293,-0.34951 0.06323,-0.27823 0.200771,-0.54181 0.361368,-0.78932 0.152442,-0.23496 0.324919,-0.45462 0.474232,-0.66725 z m 25.754605,1.45659 c 0.123613,0.21619 0.171741,0.43338 0.166486,0.64222 -3.95e-4,0.0129 -0.0011,0.0256 -0.0011,0.0386 -0.02277,0.40102 -0.235951,0.76596 -0.4906,1.0935 -0.171072,0.22006 -0.360779,0.42393 -0.52709,0.62304 -0.182382,-0.38907 -0.132043,-0.70124 0.02387,-1.0224 0.15926,-0.32798 0.428011,-0.66174 0.649193,-1.03425 0.06568,-0.1106 0.126831,-0.22408 0.179644,-0.34067 z m -25.840384,0.45975 c 0.276629,0.33152 0.306439,0.64669 0.2374,0.99737 -0.07049,0.35802 -0.244146,0.74878 -0.361931,1.16103 -0.03499,0.12242 -0.06489,0.24613 -0.08615,0.3704 -0.17245,-0.17532 -0.274082,-0.36998 -0.322802,-0.57131 -0.0026,-0.0123 -0.0053,-0.025 -0.0084,-0.0375 -0.08145,-0.38992 0.02812,-0.79594 0.189992,-1.17929 0.108647,-0.25727 0.240455,-0.50432 0.351962,-0.74079 z m 25.662052,1.54911 c 0.0843,0.23145 0.09546,0.45092 0.05605,0.65406 -0.0022,0.0126 -0.0055,0.0252 -0.0077,0.0377 -0.08802,0.38806 -0.355612,0.71045 -0.659342,0.99192 -0.203905,0.18897 -0.423948,0.3598 -0.620015,0.53047 -0.118216,-0.41353 -0.01675,-0.71458 0.189805,-1.00546 0.211,-0.29719 0.530472,-0.58043 0.80889,-0.90689 0.08265,-0.0969 0.161493,-0.1972 0.232502,-0.30173 z m -25.420326,0.34706 c 0.326936,0.27835 0.40993,0.58389 0.399929,0.94075 -0.01029,0.36435 -0.118299,0.77793 -0.170056,1.20376 -0.01535,0.12642 -0.02586,0.25347 -0.02764,0.37959 -0.197677,-0.14634 -0.328233,-0.3225 -0.407826,-0.51317 -0.0046,-0.0118 -0.0093,-0.0238 -0.01409,-0.0355 -0.141402,-0.371 -0.09815,-0.78775 -0.0019,-1.19056 0.06463,-0.2704 0.152661,-0.53461 0.221599,-0.78481 z m 24.916742,1.59107 c 0.0462,0.24148 0.02288,0.4595 -0.04762,0.6537 -0.0044,0.0119 -0.0087,0.024 -0.01358,0.0359 -0.147205,0.36892 -0.461226,0.6459 -0.805135,0.87868 -0.230793,0.15621 -0.474659,0.29261 -0.694878,0.43304 -0.05551,-0.42842 0.09163,-0.71297 0.341424,-0.96992 0.255263,-0.26257 0.615943,-0.49324 0.942444,-0.77107 0.097,-0.0825 0.190659,-0.16884 0.277279,-0.26035 z m -24.366507,0.23645 c 0.36756,0.22365 0.498334,0.51437 0.543647,0.87003 0.0463,0.36316 0.0013,0.79023 0.01336,1.22048 0.0032,0.12774 0.0117,0.25515 0.02838,0.38055 -0.217691,-0.11604 -0.373016,-0.27113 -0.480258,-0.44808 -0.0066,-0.011 -0.01283,-0.0223 -0.01938,-0.033 -0.195275,-0.34621 -0.214992,-0.76541 -0.1819,-1.1789 0.02222,-0.2776 0.06793,-0.55265 0.09612,-0.81096 z m 23.568542,1.60047 c 0.0098,0.24627 -0.04587,0.45874 -0.14448,0.64073 -0.0055,0.0111 -0.01259,0.0221 -0.01883,0.0334 -0.20037,0.34368 -0.552205,0.57246 -0.927392,0.75396 -0.251781,0.12177 -0.5137,0.22253 -0.752454,0.33088 0.0055,-0.4337 0.193353,-0.69619 0.479127,-0.91554 0.292026,-0.22417 0.684566,-0.40053 1.050042,-0.62718 0.108494,-0.0673 0.214317,-0.1386 0.313955,-0.21614 z m -22.740659,0.12754 c 0.398507,0.16752 0.571882,0.43812 0.668747,0.78519 0.09894,0.35449 0.115739,0.78535 0.188297,1.21088 0.02156,0.12636 0.04782,0.25171 0.08202,0.37379 -0.232492,-0.0845 -0.408626,-0.216 -0.540267,-0.37622 -0.0081,-0.0101 -0.01581,-0.0202 -0.02388,-0.0301 -0.243122,-0.31553 -0.322907,-0.72851 -0.350449,-1.14392 -0.01851,-0.27885 -0.01368,-0.55879 -0.02447,-0.81961 z m 21.67932,1.57696 c -0.02584,0.24582 -0.1111,0.4486 -0.234769,0.61514 -0.0077,0.0101 -0.01554,0.0202 -0.02332,0.0305 -0.24749,0.31238 -0.628961,0.4897 -1.026537,0.61739 -0.266802,0.0858 -0.540446,0.14923 -0.79214,0.22366 0.06591,-0.42935 0.288097,-0.66411 0.602522,-0.84217 0.321301,-0.18196 0.736207,-0.30192 1.131504,-0.4748 0.117396,-0.0513 0.232678,-0.10708 0.342749,-0.16968 z m -20.604626,0.0206 c 0.419752,0.10995 0.630167,0.35488 0.774837,0.68605 0.147806,0.33834 0.224496,0.76365 0.355344,1.17533 0.03883,0.12225 0.0822,0.24292 0.132997,0.35911 -0.242064,-0.0514 -0.435064,-0.1575 -0.58785,-0.29798 -0.0094,-0.009 -0.01846,-0.0176 -0.02784,-0.0262 v -2.1e-4 c -0.284955,-0.27888 -0.421643,-0.67688 -0.507342,-1.08541 -0.05754,-0.27419 -0.09232,-0.55287 -0.140146,-0.81057 z m 1.290646,1.43624 c 0.43134,0.051 0.673576,0.26523 0.862309,0.57319 0.192874,0.31468 0.327181,0.72472 0.513738,1.11343 0.05543,0.11542 0.115092,0.22866 0.181532,0.33636 -0.24643,-0.0172 -0.452149,-0.0951 -0.622846,-0.21277 -0.01051,-0.008 -0.02077,-0.015 -0.03122,-0.0225 -0.320778,-0.23628 -0.511192,-0.61096 -0.652562,-1.00377 -0.09487,-0.26361 -0.167853,-0.53508 -0.250946,-0.78406 z m 18.019952,0.0843 c -0.05978,0.24017 -0.172397,0.42934 -0.318104,0.57714 -0.0087,0.009 -0.0185,0.0181 -0.02748,0.0271 -0.28861,0.27506 -0.691253,0.39776 -1.102339,0.46915 -0.275922,0.048 -0.555533,0.073 -0.814539,0.11175 0.124478,-0.41535 0.376368,-0.61713 0.712208,-0.7502 0.343087,-0.13593 0.770616,-0.19782 1.186618,-0.31433 0.123525,-0.0346 0.245704,-0.0739 0.363626,-0.1206 z m -16.544203,1.15992 c 0.433277,-0.0101 0.701684,0.16856 0.930785,0.44602 0.234126,0.28353 0.424348,0.66919 0.664036,1.02577 0.07117,0.10587 0.146311,0.20869 0.227434,0.30531 -0.245556,0.0187 -0.459695,-0.0291 -0.645043,-0.12076 -0.01144,-0.005 -0.02262,-0.0118 -0.03406,-0.0175 -0.350568,-0.18762 -0.591758,-0.53078 -0.786312,-0.89899 -0.130557,-0.24708 -0.240318,-0.5052 -0.356852,-0.73984 z m 15.048317,0.18755 c -0.0924,0.22928 -0.230138,0.40068 -0.394838,0.52653 -0.0098,0.008 -0.0207,0.0151 -0.03076,0.0228 -0.323764,0.23172 -0.739065,0.29683 -1.154835,0.30944 -0.279086,0.009 -0.558325,-0.006 -0.819039,-0.005 0.18168,-0.39167 0.457657,-0.55487 0.807565,-0.6392 0.357374,-0.0862 0.788221,-0.0878 1.215783,-0.14542 0.126953,-0.0171 0.253072,-0.039 0.376226,-0.0688 z m -13.264815,0.81659 c 0.344107,-0.0183 0.594582,0.11217 0.827135,0.32187 0.271583,0.2449 0.515637,0.59645 0.805877,0.91179 0.08619,0.0936 0.176022,0.18358 0.270882,0.26656 -0.239458,0.0556 -0.458273,0.0408 -0.655009,-0.0223 -0.01216,-0.003 -0.02421,-0.009 -0.03631,-0.0122 -0.374286,-0.13297 -0.662834,-0.43601 -0.908025,-0.77069 -0.16456,-0.22463 -0.309891,-0.46326 -0.458054,-0.67797 0.05318,-0.009 0.104345,-0.0146 0.1535,-0.0172 z m 10.28191,0.27936 c 0.293198,0.003 0.612801,0.0382 0.935285,0.0412 0.127686,0.001 0.255306,-0.002 0.381131,-0.0147 -0.123766,0.21317 -0.284351,0.36269 -0.465014,0.46333 -0.01117,0.005 -0.02255,0.0119 -0.03372,0.018 0,0 -1.85e-4,0 -1.85e-4,0 -0.35294,0.18231 -0.772401,0.18672 -1.183979,0.13809 -0.276348,-0.0327 -0.549084,-0.0888 -0.80588,-0.12699 0.237451,-0.3583 0.53217,-0.47776 0.888833,-0.50959 0.09109,-0.008 0.185754,-0.0109 0.283487,-0.0101 z m -8.261383,0.44225 c 0.215124,0.0109 0.404116,0.0907 0.590866,0.21238 0.305235,0.19877 0.601408,0.50649 0.93962,0.77146 0.100393,0.0787 0.20407,0.15338 0.3117,0.22009 -0.228112,0.094 -0.447507,0.11409 -0.652372,0.083 -0.0127,-10e-4 -0.02539,-0.004 -0.03797,-0.005 -0.391873,-0.0723 -0.725205,-0.32718 -1.018441,-0.61947 -0.196895,-0.19624 -0.376046,-0.40922 -0.553998,-0.59838 0.153116,-0.0503 0.291549,-0.0691 0.420623,-0.0629 z m 6.066097,0.18717 c 0.04313,-2e-4 0.08681,10e-4 0.131299,0.004 0.363462,0.025 0.772368,0.14925 1.19565,0.21729 0.125682,0.0203 0.252208,0.0353 0.37811,0.0419 -0.153721,0.19185 -0.334811,0.31552 -0.528416,0.38771 -0.01193,0.004 -0.02398,0.009 -0.0359,0.0129 -0.376282,0.12699 -0.79144,0.0674 -1.190197,-0.0448 -0.267668,-0.0754 -0.527923,-0.17436 -0.775215,-0.25376 0.255307,-0.27586 0.523181,-0.36412 0.824688,-0.36552 z m -4.108969,0.22066 c 0.167197,0.002 0.327651,0.0468 0.491739,0.11775 0.284735,0.12333 0.585333,0.33163 0.9052,0.51638 0.05255,0.0303 0.105647,0.0599 0.159336,0.0886 0.113575,0.0605 0.229514,0.11621 0.347817,0.16309 -0.167361,0.10664 -0.338149,0.1662 -0.507153,0.18867 -0.0427,0.005 -0.08517,0.009 -0.127544,0.009 -0.01292,2e-4 -0.02594,-1e-4 -0.03897,0 -0.40329,-0.005 -0.778367,-0.20369 -1.117021,-0.4447 -0.227553,-0.16194 -0.439309,-0.34315 -0.645223,-0.50113 0.190729,-0.0993 0.364594,-0.13983 0.531791,-0.1377 z m 2.011317,0.0655 c 0.122299,-0.003 0.245847,0.0144 0.373588,0.0454 0.355272,0.0862 0.738922,0.27634 1.146361,0.41103 0.120998,0.0401 0.243615,0.0751 0.367009,0.10138 -0.18236,0.16533 -0.381514,0.259 -0.585026,0.29948 -0.01259,0.002 -0.02529,0.004 -0.03777,0.006 -0.393722,0.0655 -0.795579,-0.0609 -1.172703,-0.23967 -0.249416,-0.11818 -0.476532,-0.25231 -0.705804,-0.37415 -0.0077,-0.003 -0.01412,-0.008 -0.02124,-0.0112 0.0077,-0.005 0.01412,-0.0109 0.02124,-0.016 0.210146,-0.15449 0.410537,-0.21769 0.614377,-0.2231 z"
         style="color:#000000;font-style:normal;font-variant:normal;font-weight:normal;font-stretch:normal;font-size:medium;line-height:normal;font-family:sans-serif;font-variant-ligatures:normal;font-variant-position:normal;font-variant-caps:normal;font-variant-numeric:normal;font-variant-alternates:normal;font-feature-settings:normal;text-indent:0;text-align:start;text-decoration:none;text-decoration-line:none;text-decoration-style:solid;text-decoration-color:#000000;letter-spacing:normal;word-spacing:normal;text-transform:none;writing-mode:lr-tb;direction:ltr;text-orientation:mixed;dominant-baseline:auto;baseline-shift:baseline;text-anchor:start;white-space:normal;shape-padding:0;clip-rule:nonzero;display:inline;overflow:visible;visibility:visible;opacity:1;isolation:auto;mix-blend-mode:normal;color-interpolation:sRGB;color-interpolation-filters:linearRGB;solid-color:#000000;solid-opacity:1;vector-effect:none;fill:#000000;fill-opacity:1;fill-rule:nonzero;stroke:none;stroke-width:1.58750021;stroke-linecap:round;stroke-linejoin:round;stroke-miterlimit:4;stroke-dasharray:none;stroke-dashoffset:0;stroke-opacity:1;color-rendering:auto;image-rendering:auto;shape-rendering:auto;text-rendering:auto;enable-background:accumulate" />
      <path
         style="opacity:1;fill:#000000;fill-opacity:1;stroke:none;stroke-width:3.17500019;stroke-linecap:round;stroke-linejoin:round;stroke-miterlimit:4;stroke-dasharray:none;stroke-opacity:1"
         d="m 26.401097,262.04713 c -0.128332,-0.002 -0.224923,0.009 -0.224923,0.32486 0,0.27398 0.07284,0.69776 0.175891,0.88634 h -0.233269 c -0.08103,0 -0.111826,0.0655 -0.146262,0.13061 l -0.07991,0.15085 c -0.03761,0.0711 0.07613,0.14001 0.170465,0.14001 h 0.03777 c -0.0058,0.0169 -0.0096,0.0347 -0.0096,0.0536 0,0.0446 0.01781,0.0849 0.04632,0.11455 h -0.09598 c -0.08662,0 -0.156278,0.0697 -0.156278,0.15627 v 1.3944 a 5.1743942,5.1743942 0 0 0 -2.658383,1.09582 l -0.982106,-0.98211 c -0.06125,-0.0612 -0.159919,-0.0615 -0.221166,-2.1e-4 l -0.06781,0.0678 c -8.55e-4,-0.0411 -0.01665,-0.082 -0.0482,-0.11351 -0.01336,-0.0134 -0.02878,-0.0231 -0.04465,-0.0311 l 0.02671,-0.0267 c 0.0667,-0.0667 0.0984,-0.1958 0.02149,-0.2195 l -0.163163,-0.0503 c -0.0704,-0.0217 -0.138623,-0.0462 -0.19592,0.0111 l -0.164832,0.16504 c -0.06047,-0.20621 -0.308904,-0.55761 -0.502633,-0.75134 -0.223283,-0.22328 -0.299182,-0.16269 -0.388502,-0.0705 -0.01268,0.0132 -0.02589,0.027 -0.03964,0.0407 -0.109985,0.10998 -0.22535,0.17296 0.02984,0.42814 0.19372,0.19373 0.545127,0.44216 0.751341,0.50264 l -0.16525,0.16504 c -0.0573,0.0573 -0.03209,0.12748 -0.01106,0.19571 l 0.05049,0.16316 c 0.02369,0.0769 0.152586,0.0454 0.21929,-0.0213 l 0.02692,-0.0271 c 0.0078,0.016 0.01752,0.0315 0.03088,0.0449 0.03153,0.0315 0.07257,0.0474 0.113713,0.0482 l -0.06781,0.0676 c -0.06124,0.0612 -0.06104,0.15992 2.14e-4,0.22117 l 0.985028,0.98503 a 5.1743942,5.1743942 0 0 0 -1.102287,2.65567 h -1.390639 c -0.08662,0 -0.156487,0.0697 -0.156485,0.15628 v 0.096 c -0.02966,-0.0285 -0.06974,-0.0463 -0.11434,-0.0463 -0.0189,0 -0.03675,0.004 -0.05362,0.01 l -2.14e-4,-0.0378 c -2e-6,-0.0943 -0.06885,-0.20809 -0.140003,-0.17047 l -0.150852,0.0799 c -0.06512,0.0344 -0.130614,0.0652 -0.130614,0.14626 v 0.23327 c -0.188573,-0.10306 -0.612572,-0.17589 -0.886544,-0.17589 -0.31577,0 -0.326673,0.0966 -0.324657,0.22492 4.27e-4,0.0183 8.54e-4,0.0373 8.54e-4,0.0567 -2e-6,0.15554 -0.03706,0.28167 0.323822,0.28167 0.273972,1e-5 0.697973,-0.0728 0.886544,-0.17589 v 0.23348 c 2e-6,0.081 0.0675,0.11289 0.130614,0.14626 l 0.150852,0.0797 c 0.07114,0.0376 0.140003,-0.0759 0.140003,-0.17026 v -0.0382 c 0.01687,0.006 0.03472,0.01 0.05362,0.01 0.04459,0 0.08466,-0.018 0.114339,-0.0465 v 0.096 c 1e-6,0.0866 0.06987,0.15628 0.156487,0.15628 h 1.394602 a 5.1743942,5.1743942 0 0 0 1.095819,2.65838 l -0.982315,0.98232 c -0.06125,0.0613 -0.06146,0.15992 -2.14e-4,0.22116 l 0.06781,0.0678 c -0.04114,8.6e-4 -0.08197,0.0164 -0.113504,0.048 -0.01336,0.0134 -0.02323,0.0289 -0.03109,0.0449 l -0.02671,-0.0267 c -0.06671,-0.0667 -0.196001,-0.0984 -0.219706,-0.0215 l -0.05008,0.16316 c -0.0217,0.0704 -0.04624,0.13841 0.01106,0.19571 l 0.16504,0.16504 c -0.206212,0.0605 -0.557615,0.3087 -0.75134,0.50242 -0.223285,0.22328 -0.162695,0.29919 -0.07052,0.38851 0.01325,0.0127 0.02694,0.0259 0.04069,0.0396 0.10998,0.10998 0.172959,0.22535 0.428145,-0.0298 0.193729,-0.19372 0.44216,-0.54492 0.502633,-0.75113 l 0.16504,0.16504 c 0.0573,0.0573 0.127486,0.0321 0.195712,0.0111 l 0.163163,-0.0503 c 0.0769,-0.0237 0.04522,-0.15279 -0.02149,-0.21949 l -0.02692,-0.0267 c 0.01602,-0.008 0.0315,-0.0177 0.04486,-0.0311 0.03153,-0.0315 0.04737,-0.0724 0.0482,-0.1135 l 0.0676,0.0676 c 0.06125,0.0612 0.159918,0.0613 0.221166,0 l 0.985236,-0.98524 a 5.1743942,5.1743942 0 0 0 2.655461,1.10229 v 1.39085 c 0,0.0866 0.06966,0.15648 0.156277,0.15648 h 0.09598 c -0.02851,0.0297 -0.04632,0.0697 -0.04632,0.11434 0,0.0189 0.0038,0.0367 0.0096,0.0536 h -0.03777 c -0.09434,0 -0.208079,0.0689 -0.170465,0.14001 l 0.07991,0.15085 c 0.03444,0.0651 0.06523,0.13061 0.146262,0.13061 h 0.233269 c -0.103054,0.18858 -0.175891,0.61257 -0.175891,0.88655 0,0.31577 0.09659,0.32667 0.224923,0.32465 0.01833,-4.2e-4 0.03731,-8.5e-4 0.05675,-8.5e-4 0.155537,0 0.281675,0.0371 0.281675,-0.32382 0,-0.27398 -0.07284,-0.69797 -0.17589,-0.88655 h 0.233476 c 0.08103,0 0.112887,-0.0675 0.146262,-0.13061 l 0.0797,-0.15085 c 0.03762,-0.0711 -0.07592,-0.14001 -0.170256,-0.14001 h -0.03797 c 0.0058,-0.0169 0.0098,-0.0347 0.0098,-0.0536 0,-0.0446 -0.01781,-0.0847 -0.04632,-0.11434 h 0.09577 c 0.08662,0 0.156277,-0.0699 0.156277,-0.15648 v -1.39461 a 5.1743942,5.1743942 0 0 0 2.658382,-1.09581 l 0.982524,0.98252 c 0.06125,0.0612 0.159712,0.0612 0.220958,0 l 0.0676,-0.0678 c 8.54e-4,0.0411 0.01688,0.0822 0.04841,0.11371 0.01337,0.0134 0.02884,0.0233 0.04486,0.0311 l -0.02692,0.0267 c -0.0667,0.0667 -0.09838,0.19579 -0.02149,0.21949 l 0.163163,0.0503 c 0.06824,0.021 0.138416,0.0462 0.195712,-0.0111 l 0.16504,-0.16504 c 0.06047,0.20621 0.308695,0.5574 0.502423,0.75113 0.255183,0.25519 0.318376,0.13981 0.428355,0.0298 0.01377,-0.0138 0.02745,-0.027 0.04069,-0.0396 0.09211,-0.0893 0.152469,-0.16551 -0.07073,-0.38872 -0.193733,-0.19372 -0.544922,-0.44174 -0.751133,-0.50221 l 0.165041,-0.16504 c 0.0573,-0.0573 0.03274,-0.12531 0.01106,-0.19571 l -0.05028,-0.16317 c -0.02369,-0.0769 -0.152792,-0.0452 -0.219497,0.0215 l -0.02671,0.0267 c -0.0078,-0.016 -0.01772,-0.0312 -0.03109,-0.0446 -0.03153,-0.0315 -0.07256,-0.0474 -0.113713,-0.0482 l 0.06781,-0.068 c 0.06125,-0.0612 0.06125,-0.15971 0,-0.22095 l -0.985235,-0.98524 a 5.1743942,5.1743942 0 0 0 1.102287,-2.65546 h 1.391053 c 0.08662,0 0.15628,-0.0697 0.156277,-0.15628 v -0.0958 c 0.02966,0.0285 0.06996,0.0463 0.114549,0.0463 0.0189,0 0.03674,-0.004 0.05362,-0.01 v 0.038 c 10e-7,0.0943 0.06887,0.20786 0.140003,0.17026 l 0.150852,-0.0797 c 0.06311,-0.0334 0.130614,-0.0652 0.130613,-0.14626 v -0.23346 c 0.188577,0.10306 0.612362,0.17589 0.886337,0.17589 0.360883,0 0.32403,-0.12613 0.32403,-0.28167 1.2e-5,-0.0195 2.14e-4,-0.0384 8.55e-4,-0.0567 h 2.13e-4 c 0.002,-0.12833 -0.0091,-0.22492 -0.324865,-0.22492 -0.273974,0 -0.697762,0.0728 -0.886336,0.17589 v -0.23327 c 0,-0.081 -0.0655,-0.11182 -0.130614,-0.14627 l -0.150891,-0.0799 c -0.07113,-0.0376 -0.140005,0.0761 -0.140003,0.17047 v 0.0378 c -0.01687,-0.006 -0.03472,-0.01 -0.05362,-0.01 -0.04459,0 -0.08487,0.0178 -0.114547,0.0463 v -0.096 c 0,-0.0866 -0.06966,-0.15628 -0.156278,-0.15628 h -1.394602 a 5.1743942,5.1743942 0 0 0 -1.09582,-2.65838 l 0.982316,-0.98232 c 0.06125,-0.0613 0.06125,-0.15971 0,-0.22096 l -0.06781,-0.0678 c 0.04114,-8.1e-4 0.08218,-0.0167 0.113712,-0.0482 0.01336,-0.0134 0.02324,-0.0288 0.03109,-0.0449 l 0.02671,0.0269 c 0.06671,0.0667 0.195794,0.0982 0.219498,0.0213 l 0.05028,-0.16295 c 0.02103,-0.0682 0.04624,-0.13862 -0.01106,-0.19592 l -0.165041,-0.16504 c 0.206214,-0.0605 0.557403,-0.30848 0.751132,-0.50222 0.255184,-0.25518 0.139818,-0.31837 0.02984,-0.42835 -0.01375,-0.0138 -0.02675,-0.0274 -0.03943,-0.0407 -0.08932,-0.0922 -0.16563,-0.15276 -0.38892,0.0705 -0.193729,0.19373 -0.441743,0.54492 -0.502216,0.75113 l -0.16504,-0.16483 c -0.0573,-0.0573 -0.125313,-0.0327 -0.195712,-0.0111 l -0.163162,0.0501 c -0.0769,0.0237 -0.04522,0.1528 0.02149,0.2195 l 0.02671,0.0267 c -0.01602,0.008 -0.03129,0.0177 -0.04465,0.0311 -0.03153,0.0315 -0.04737,0.0728 -0.0482,0.11392 l -0.06802,-0.068 c -0.06125,-0.0612 -0.159709,-0.0612 -0.220958,0 l -0.985236,0.98524 A 5.1743942,5.1743942 0 0 0 27.030594,265.395 v -1.39085 c 0,-0.0866 -0.06966,-0.15628 -0.156278,-0.15628 h -0.09577 c 0.0285,-0.0297 0.04632,-0.07 0.04632,-0.11454 0,-0.0189 -0.004,-0.0368 -0.0098,-0.0536 h 0.03797 c 0.09434,0 0.207873,-0.0689 0.170257,-0.14 l -0.0797,-0.15085 c -0.03337,-0.0631 -0.06523,-0.13061 -0.146262,-0.13061 h -0.233478 c 0.103054,-0.18858 0.17589,-0.61237 0.17589,-0.88634 0,-0.36088 -0.126138,-0.32403 -0.281674,-0.32403 -0.01944,0 -0.03842,-4.3e-4 -0.05675,-8.3e-4 z m -0.317145,4.12559 c -0.04984,0.15442 -0.07908,0.39872 -0.07908,0.78619 0,0.56222 0.06147,1.30692 0.158363,1.86427 a 1.7373879,1.7373879 0 0 0 -0.706273,0.29481 c -0.325558,-0.46287 -0.809243,-1.03395 -1.207236,-1.43195 -0.27283,-0.27283 -0.465823,-0.42497 -0.610087,-0.49929 a 4.3812392,4.3812392 0 0 1 2.44431,-1.01403 z m 0.748212,0 a 4.3812392,4.3812392 0 0 1 2.448691,1.01194 c -0.144727,0.0734 -0.338717,0.22543 -0.614468,0.50118 -0.397757,0.39775 -0.881057,0.96833 -1.20661,1.43111 a 1.7373879,1.7373879 0 0 0 -0.707317,-0.29211 c 0.09706,-0.55752 0.158781,-1.30315 0.158781,-1.86593 0,-0.38748 -0.02924,-0.63177 -0.07908,-0.78619 z m -3.724574,1.53941 c 0.07337,0.14479 0.225196,0.3389 0.501172,0.61488 0.397719,0.39772 0.968206,0.88106 1.430907,1.20661 a 1.7373879,1.7373879 0 0 0 -0.292106,0.70732 c -0.557446,-0.097 -1.303017,-0.15878 -1.86573,-0.15878 -0.387455,0 -0.631728,0.029 -0.786185,0.0789 a 4.3812392,4.3812392 0 0 1 1.011942,-2.4489 z m 6.69885,0.005 a 4.3812392,4.3812392 0 0 1 1.014028,2.44431 c -0.15442,-0.0498 -0.398525,-0.0789 -0.785977,-0.0789 -0.562224,0 -1.306924,0.0615 -1.864268,0.15836 a 1.7373879,1.7373879 0 0 0 -0.29482,-0.70627 c 0.462887,-0.32562 1.033932,-0.80943 1.43195,-1.20745 0.272837,-0.27284 0.424792,-0.46585 0.499087,-0.61008 z m -3.348382,1.79875 a 1.0197712,1.0197712 0 0 1 1.019662,1.01987 1.0197712,1.0197712 0 0 1 -1.019662,1.01966 1.0197712,1.0197712 0 0 1 -1.019871,-1.01966 1.0197712,1.0197712 0 0 1 1.019871,-1.01987 z m 1.710495,1.31427 c 0.557523,0.0971 1.303157,0.15878 1.865938,0.15878 0.387462,0 0.631558,-0.0292 0.785977,-0.0791 a 4.3812392,4.3812392 0 0 1 -1.011942,2.44869 c -0.07341,-0.14473 -0.225416,-0.33871 -0.501173,-0.61447 -0.397783,-0.39778 -0.968373,-0.88127 -1.431115,-1.20682 a 1.7373879,1.7373879 0 0 0 0.292315,-0.70711 z m -3.42266,4.2e-4 a 1.7373879,1.7373879 0 0 0 0.29482,0.70627 c -0.462875,0.32556 -1.033956,0.80925 -1.431951,1.20724 -0.272832,0.27283 -0.424765,0.46582 -0.499085,0.61009 a 4.3812392,4.3812392 0 0 1 -1.014029,-2.44432 c 0.154457,0.0498 0.398729,0.0791 0.786185,0.0791 0.562157,0 1.306793,-0.0615 1.86406,-0.15836 z m 2.713258,1.12252 c 0.325557,0.46288 0.809242,1.03396 1.207236,1.43195 0.272838,0.27284 0.465849,0.4248 0.610087,0.49909 a 4.3812392,4.3812392 0 0 1 -2.44431,1.01403 c 0.04984,-0.15446 0.07908,-0.39872 0.07908,-0.78619 0,-0.56222 -0.06147,-1.30698 -0.158364,-1.86426 a 1.7373879,1.7373879 0 0 0 0.706274,-0.29462 z m -2.002812,8.6e-4 a 1.7373879,1.7373879 0 0 0 0.707317,0.29231 c -0.09704,0.55745 -0.158781,1.30302 -0.158781,1.86573 0,0.38747 0.02924,0.63173 0.07908,0.78619 a 4.3812392,4.3812392 0 0 1 -2.448691,-1.01194 c 0.144756,-0.0734 0.338702,-0.22562 0.614468,-0.50138 0.397754,-0.39776 0.881057,-0.96824 1.20661,-1.43091 z"
         id="path873" />
    </g>
  </g>
</svg>
