<?xml version="1.0" encoding="UTF-8" standalone="no"?>
<svg
   xmlns:dc="http://purl.org/dc/elements/1.1/"
   xmlns:cc="http://creativecommons.org/ns#"
   xmlns:rdf="http://www.w3.org/1999/02/22-rdf-syntax-ns#"
   xmlns:svg="http://www.w3.org/2000/svg"
   xmlns="http://www.w3.org/2000/svg"
   id="svg59"
   xml:space="preserve"
   enable-background="new 0 0 950 700"
   viewBox="0 0 700 500"
   height="500"
   width="700"
   y="0px"
   x="0px"
   version="1.1"><metadata
   id="metadata65"><rdf:RDF><cc:Work
       rdf:about=""><dc:format>image/svg+xml</dc:format><dc:type
         rdf:resource="http://purl.org/dc/dcmitype/StillImage" /><dc:title></dc:title></cc:Work></rdf:RDF></metadata><defs
   id="defs63">
	
	
	
<filter
   height="1.1080319"
   y="-0.054015957"
   width="1.0753807"
   x="-0.037690341"
   id="filter936"
   style="color-interpolation-filters:sRGB"><feGaussianBlur
     id="feGaussianBlur938"
     stdDeviation="13.984523" /></filter></defs>
<g
   transform="translate(0,-200)"
   id="Camera_Standing">
</g>
<g
   transform="translate(0,-200)"
   id="Camera_Lying">
</g>
<g
   transform="translate(0,-200)"
   id="Colours_1_">
</g>
<g
   transform="translate(0,-200)"
   id="Aquarell_1_">
</g>
<g
   transform="translate(0,-200)"
   id="Envelope_big_1_">
</g>
<g
   transform="translate(0,-200)"
   id="Envelope_small_1_">
</g>
<g
   transform="translate(0,-200)"
   id="Airmail_1_">
</g>
<g
   transform="translate(0,-200)"
   id="Highlighters_Closed_1_">
</g>
<g
   transform="translate(0,-200)"
   id="Highlighters_Open_1_">
</g>
<g
   transform="translate(0,-200)"
   id="USB_Stick_1_">
</g>
<g
   transform="translate(0,-200)"
   id="Pencil_Small">
</g>
<g
   transform="translate(0,-200)"
   id="Pencil_Large">
</g>
<g
   transform="translate(0,-200)"
   id="Brush_3_">
</g>
<g
   transform="translate(0,-200)"
   id="Notepad_1_">
</g>
<g
   transform="translate(0,-200)"
   id="Moleskine_Large_Open">
</g>
<g
   transform="translate(0,-200)"
   id="Moleskine_Small_Open_1_">
</g>
<g
   transform="translate(0,-200)"
   id="Moleskine_Large">
</g>
<g
   transform="translate(0,-200)"
   id="Moleskine_Small_1_">
</g>
<g
   transform="translate(0,-200)"
   id="iPad_Mini">
</g>
<g
   transform="translate(0,-200)"
   id="MacBook_13_x22_">
</g>
<g
   transform="translate(0,-200)"
   id="iMac_1_">
</g>
<g
   transform="translate(0,-200)"
   id="Wallet_2_">
</g>
<g
   transform="translate(0,-200)"
   id="iPhone_6_Grey">
</g>
<g
   transform="translate(0,-200)"
   id="iPhone_6_Silver_1_">
</g>
<g
   transform="translate(0,-200)"
   id="iPhone_6_Gold_1_">
</g>
<g
   transform="translate(0,-200)"
   id="Wallet_1_">
</g>
<g
   transform="translate(0,-200)"
   id="Bills">
</g>
<g
   transform="translate(0,-200)"
   id="Coins_1_">
</g>
<g
   transform="translate(0,-200)"
   id="Passport_Red_1_">
</g>
<g
   transform="translate(0,-200)"
   id="Passport_Blue_1_">
</g>
<g
   transform="translate(0,-200)"
   id="Credit_Card_Red">
</g>
<g
   transform="translate(0,-200)"
   id="Credit_Card_Blue">
</g>
<g
   transform="translate(0,-200)"
   id="Aeroplane_1_">
</g>
<g
   transform="translate(0,-200)"
   id="Magic_Mouse_1_">
</g>
<g
   transform="translate(0,-200)"
   id="Keyboard">
</g>
<g
   transform="translate(0,-200)"
   id="Ruler_1_">
</g>
<g
   transform="translate(0,-200)"
   id="Charger_1_">
</g>

<g
   transform="translate(0,-200)"
   id="Brushes">
</g>
<g
   transform="translate(0,-200)"
   id="Pencils">
</g>
<g
   transform="translate(0,-200)"
   id="Can">
</g>
<g
   transform="translate(0,-200)"
   id="Coffee">
</g>
<g
   transform="translate(0,-200)"
   id="Stylus">
</g>
<g
   transform="translate(0,-200)"
   id="Wacom_1_">
</g>
<g
   transform="translate(0,-200)"
   id="Paperclips_1_">
</g>
<g
   transform="translate(0,-200)"
   id="Earbuds_1_">
</g>
<g
   transform="translate(0,-200)"
   id="Glasses">
</g>
<g
   transform="translate(0,-200)"
   id="Sunglasses">
</g>
<g
   transform="translate(0,-200)"
   id="Case_1_">
</g>
<g
   transform="translate(0,-200)"
   id="Donut_1_">
</g>
<g
   transform="translate(-652.29569,-340.17581)"
   id="g1068"><g
     style="opacity:0.51000001;fill:#1d1918;fill-opacity:1;stroke-width:1.3796556;filter:url(#filter936)"
     transform="matrix(0.72481834,5.1976625e-4,-5.1976625e-4,0.72481834,657.65681,337.34965)"
     id="g922"><g
       style="fill:#1d1918;fill-opacity:1;stroke-width:1.3796556"
       id="g886">
		<path
   style="fill:#1d1918;fill-opacity:1;stroke-width:1.3796556"
   id="path882"
   d="m 53.969,656.846 c -11.731,0 -21.275,-9.544 -21.275,-21.275 V 61.374 c 0,-11.731 9.544,-21.275 21.275,-21.275 h 843.529 c 11.73,0 21.274,9.544 21.274,21.275 V 635.57 c 0,11.731 -9.544,21.275 -21.274,21.275 H 53.969 Z" />
		<path
   style="fill:#1d1918;fill-opacity:1;stroke-width:1.3796556"
   id="path884"
   d="m 897.498,42.099 c 10.628,0 19.274,8.647 19.274,19.275 V 635.57 c 0,10.629 -8.646,19.275 -19.274,19.275 H 53.969 c -10.628,0 -19.275,-8.646 -19.275,-19.275 V 61.374 c 0,-10.628 8.646,-19.275 19.275,-19.275 h 843.529 m 0,-4 H 53.969 c -12.854,0 -23.275,10.42 -23.275,23.275 V 635.57 c 0,12.854 10.42,23.275 23.275,23.275 h 843.529 c 12.854,0 23.274,-10.422 23.274,-23.275 V 61.374 c 0,-12.855 -10.419,-23.275 -23.274,-23.275 z" />
	</g><path
       style="fill:#1d1918;fill-opacity:1;stroke-width:1.3796556"
       d="m 902.437,616.351 c 0,11.875 -7.313,19.188 -19.188,19.188 H 68.219 c -11.876,0 -19.189,-7.313 -19.189,-19.188 V 80.594 c 0,-11.876 7.312,-19.188 19.189,-19.188 h 815.029 c 11.875,0 19.188,7.312 19.188,19.188 v 535.757 z"
       id="path888" /><g
       style="fill:#1d1918;fill-opacity:1;stroke-width:1.3796556"
       id="g920"
       transform="matrix(1.3333333,0,0,-1.3333333,598.8587,447.01831)"><path
         d="m -51.507942,106.38264 c -0.778,-3.08 -1.033,-6.681002 -2.013,-9.557002 -6.478,2.454 -13.734,5.484002 -22.131,4.905002 -8.196,-0.566 -16.225,-1.831002 -23.012,-3.899002 -2.918998,-0.89 -5.914998,-2.336 -8.927998,-3.52 -2.91,-1.147 -5.869,-2.438 -8.425,-3.899 -1.064,-0.609 -2.032,-1.529 -3.1435,-2.264 -2.952,-1.952 -6.4231,-4.95 -8.5504,-7.544 -2.0383,-2.486 -4.107,-5.69 -5.4074,-9.054 -0.6699,-1.734 -1.6485,-3.343 -2.1371,-5.155 -1.4184,-5.255 -1.0313,-11.679 0.8797,-16.599 2.5636,-6.5991 6.7058,-9.9741 11.8199,-14.0838 2.3488,-1.8864 4.9458,-3.2883 7.7968,-4.4 5.871,-2.2922 12.609,-4.2551 19.867998,-4.5282 7.132,-0.266 14.743,1.1661 21.251,3.27 8.762,2.834 15.396,6.0609 20.748,11.8191 1.358,1.4617 2.995,2.7909 3.898,4.2759 0.65,1.07 1.036,2.5 1.76,3.773 1.38,2.427 2.341,4.668 3.019,8.048 0.818,4.079 1.001,7.995 -0.504,12.072 -0.434,1.181 -1.054,2.459 -1.634,3.521 -2.944,5.382 -7.447,9.054 -13.329,11.945 -1.726,0.37 -3.255,0.936 -4.527,1.761 0.046,3.012 0.411,5.709 0.88,8.298 2.739,-0.382 5.057,-1.712 7.167,-3.017 3.999,-2.476 7.565,-5.546 10.312,-9.306 0.579,-0.792 0.983,-1.839 1.635,-2.766 0.657,-0.935 1.074,-1.88 1.507,-2.892 0.855,-1.984 1.949,-4.115 2.516,-6.162 1.733,-6.243 0.526,-12.94 -1.131,-18.108 -1.727,-5.38 -4.632,-9.766 -7.294,-13.3288 -6.049,-8.0891 -15.281,-12.5082 -25.275,-16.0942 -5.145,-1.8461 -10.292,-3.2808 -17.227,-3.5211 -11.537998,-0.3988 -22.173998,2.2809 -29.550098,6.6641 -3.0758,1.827 -5.9246,4.2898 -8.5512,6.916 -1.8109,1.8121 -3.8047,3.5231 -5.0297,5.2809 -1.95,2.8011 -4.0328,6.5461 -4.9039,10.5631 -1.8379,8.478 -0.8468,18.657 2.2637,25.15 1.5023,3.137 3.2668,6.262 5.0297,8.676 9.6289,13.182 24.6855,21.176002 43.507498,24.898002 11.682,2.31 27.004,1.618 36.845,-2.138"
         style="fill:#1d1918;fill-opacity:1;fill-rule:evenodd;stroke:none;stroke-width:0.13796556"
         id="path890" /><path
         d="m -69.615942,83.747638 c 1.09,-1.871 4.742,-3.88 6.035,-6.035 1.225,-2.041 0.198,-4.282 -2.765,-3.898 -2.326,1.489 -3.762,3.866 -5.534,5.91 -2.339,-2.229 -3.049,-6.088 -5.659,-8.047 -1.574,-0.192 -2.515,0.251 -3.017,1.131 -0.142,2.88 1.414,4.394 2.514,6.287 0.772,1.327 1.674,2.459 2.265,3.898 -0.231,1.635 -2.81,2.875 -4.151,4.401 -0.506,0.577 -1.305,1.825 -1.257,2.641 0.058,0.977 0.953,2.02 2.012,2.137 1.543,0.173 2.619,-1.497 3.521,-2.264 1.223,-1.036 2.125,-1.753 2.892,-2.891 1.272,0.901 2.409,3.66 3.898,5.155 1.005,1.009 3.769,1.648 4.151,-0.502 0.323,-1.835 -1.569,-3.082 -2.39,-4.024 -1.034,-1.186 -1.677,-2.757 -2.515,-3.899"
         style="fill:#1d1918;fill-opacity:1;fill-rule:evenodd;stroke:none;stroke-width:0.13796556"
         id="path892" /><path
         d="m -82.064942,69.287638 c -2.864,-0.797 -4.309,0.878 -5.408,2.263 -0.39,-0.447 -0.458,-1.218 -1.005,-1.508 -0.923,0 -1.845,0 -2.767,0 -1.315,0.612 -2.093,1.762 -2.766,3.017 -0.089,4.826 0.209,9.264 0.126,14.084 0.461,1.784 3.732,1.717 4.4,0.378 0.59,-1.181 0.127,-4.242 0.127,-6.414 0,-2.462 -0.186,-4.676 0.377,-6.036 1.698,0.613 2.426,3.159 2.893,5.407 0.511,2.467 -0.924,9.649 2.892,8.677 2.507,-0.639 1.481,-7.262 1.634,-10.563 0.17,-3.649 0.566,-7.49 -0.503,-9.305"
         style="fill:#1d1918;fill-opacity:1;fill-rule:evenodd;stroke:none;stroke-width:0.13796556"
         id="path894" /><path
         d="m -123.43544,83.873638 c 1.1281,1.335 4.6269,1.099 5.4065,-0.377 0.912,-1.724 -0.073,-5.489 -0.251,-7.67 -0.43,-5.263 -0.7543,-7.894 -0.7543,-13.958 0,-2.06 0.1546,-4.786 -0.5028,-5.659 -0.4836,-0.642 -2.2828,-0.971 -3.0187,-0.125 -0.7699,0.885 -0.5024,4.9 -0.6282,6.664 -0.5,6.982 -0.0812,14.942 -0.2515,21.125"
         style="fill:#1d1918;fill-opacity:1;fill-rule:evenodd;stroke:none;stroke-width:0.13796556"
         id="path896" /><path
         d="m -102.56194,81.987638 c 0.355,0.442 0.453,1.14 1.006,1.384 5.301998,1.135 4.720998,-3.51 5.155998,-7.545 0.403,-3.744 1.892,-8.168 1.257,-11.317 -3.135,-1.623 -4.31,1.477 -4.652,4.149 -0.431998,3.367 -0.558998,7.53 -2.137998,9.054 -2.934,-2.641 -2.111,-9.039 -2.641,-14.084 -0.722,-0.505 -2.913,-1.528 -3.772,-0.252 -0.448,0.667 -0.252,3.173 -0.252,4.904 0,3.642 0,6.452 0,10.312 0,1.839 -0.305,4.063 0.126,5.03 0.637,1.427 3.005,0.78 3.396,0.629 1.153,-0.45 1.302,-1.149 2.514,-2.264"
         style="fill:#1d1918;fill-opacity:1;fill-rule:evenodd;stroke:none;stroke-width:0.13796556"
         id="path898" /><path
         d="m -113.75294,82.742638 c 3.621,1.053 3.419,-3.997 1.131,-4.402 -2.748,-0.486 -4.068,3.547 -1.131,4.402"
         style="fill:#1d1918;fill-opacity:1;fill-rule:evenodd;stroke:none;stroke-width:0.13796556"
         id="path900" /><path
         d="m -110.60894,75.699638 c -0.147,-5.762 -0.499,-11.32 -1.132,-16.598 -0.989,-0.89 -3.263,-0.676 -3.773,0.629 -0.249,0.638 -0.318,2.526 -0.377,3.269 -0.133,1.68 0,4.38 0,6.79 0,2.369 -0.277,5.581 0.252,6.414 0.847,1.336 4.47,1.053 5.03,-0.504"
         style="fill:#1d1918;fill-opacity:1;fill-rule:evenodd;stroke:none;stroke-width:0.13796556"
         id="path902" /><path
         d="m -69.741942,50.676638 c 0.805,0.491 1.964,0.808 2.264,1.888 0.421,1.516 -0.31,3.693 0,5.532 -2.008,-0.996 -3.819,-4.878 -2.264,-7.42 z m 3.27,21.377 c 1.348,-0.076 3.051,0.202 4.023,-0.251 1.073,-1.385 0.039,-4.505 -0.125,-6.539 -0.243,-2.991 -0.089,-7.35 -0.253,-10.814 -0.081,-1.74 0.467,-9.425 -0.754,-10.311 -2.079,-1.5122 -4.017,1.436 -3.772,3.521 -1.319,-1.465 -4.099,-3.503 -6.162,-1.51 -0.288,0.28 -0.754,1.021 -0.88,1.383 -1.75,5.053 1.267,13.35 4.527,15.091 0.8,0.079 1.505,0.256 2.265,0.376 1.679,2.19 -1.087,7.077 1.131,9.054"
         style="fill:#1d1918;fill-opacity:1;fill-rule:evenodd;stroke:none;stroke-width:0.13796556"
         id="path904" /><path
         d="m -54.148942,63.125638 c -1.082,1.27 -2.783,-1.108 -2.39,-2.515 1.453,-0.288 2.209,1.12 2.39,2.515 z m 3.646,-6.035 c 2.215,-3.093 -2.514,-7.326 -5.785,-7.294 -2.419,0.024 -4.838,2.615 -5.407,4.653 -0.636,2.28 0.067,5.558 0.756,7.419 0.624,1.691 3.007,5.952 4.777,6.286 2.626,0.499 4.735,-1.018 5.659,-3.143 0.201,-3.517 -0.569,-5.679 -2.893,-6.915 -1.605,-0.857 -4.382,-1.151 -3.897,-3.396 0.419,-1.939 2.308,-0.148 3.017,0.629 1.076,1.176 1.253,2.07 3.773,1.761"
         style="fill:#1d1918;fill-opacity:1;fill-rule:evenodd;stroke:none;stroke-width:0.13796556"
         id="path906" /><path
         d="m -78.041942,66.269638 c 3.821,1.237 3.912,-4.125 1.257,-4.401 -2.588,-0.269 -3.722,3.31 -1.257,4.401"
         style="fill:#1d1918;fill-opacity:1;fill-rule:evenodd;stroke:none;stroke-width:0.13796556"
         id="path908" /><path
         d="m -81.938942,47.784638 c 0.49,-3.349 -0.837,-4.3851 -2.39,-6.2871 -0.968,-1.1871 -1.678,-2.5097 -2.891,-2.7668 -1.363,-0.289 -3.495,0.727 -3.522,2.0118 -0.017,0.8992 1.498,2.5191 2.013,3.1441 0.725,0.885 2.168,1.766 2.264,2.891 0.223,2.69 -4.388,3.702 -4.654,6.288 -0.393,3.825 3.795,7.261 6.162,8.425 2.307,1.136 3.332,-2.1 2.892,-3.52 -0.16,-0.518 -0.818,-1.445 -1.384,-2.012 -1.069,-1.074 -2.728,-1.202 -2.766,-2.767 -0.028,-1.144 1.578,-1.929 2.264,-2.64 0.966,-1.002 1.442,-1.707 2.012,-2.767"
         style="fill:#1d1918;fill-opacity:1;fill-rule:evenodd;stroke:none;stroke-width:0.13796556"
         id="path910" /><path
         d="m -76.658942,43.383538 c -1.314,-0.8188 -2.808,0.0179 -3.52,0.8801 -0.671,1.791 -0.155,5.749 -0.377,9.431 -0.145,2.394 -1.031,6.498 0.88,7.041 1.303,0.37 2.935,0.081 3.646,-0.754 1.078,-1.264 0.131,-3.864 0,-5.658 -0.271,-3.735 0.442,-8.253 -0.629,-10.9401"
         style="fill:#1d1918;fill-opacity:1;fill-rule:evenodd;stroke:none;stroke-width:0.13796556"
         id="path912" /><path
         d="m -109.47794,58.221638 c 3.53,1.008 3.496,-3.983 1.132,-4.401 -2.579,-0.457 -4.165,3.535 -1.132,4.401"
         style="fill:#1d1918;fill-opacity:1;fill-rule:evenodd;stroke:none;stroke-width:0.13796556"
         id="path914" /><path
         d="m -98.537942,54.323638 c 0.355,0.443 0.453,1.141 1.006,1.383 5.846,1.474 5.053,-5.729 5.533,-9.809 0.429,-3.6419 1.678,-6.4989 0.88,-9.052 -3.135,-1.6219 -4.31,1.4769 -4.653,4.148 -0.431,3.368 -0.558,7.529 -2.137,9.054 -1.012,-1.049 -1.892,-3.046 -2.263998,-5.029 -0.457,-2.4449 0.592998,-5.4992 -1.005,-7.041 -4.638,-0.918 -3.396,5.218 -3.396,10.184 0,2.417 -0.489,6.42 0.126,7.797 0.616,1.378 2.745,0.882 3.395,0.628 1.168998,-0.456 1.414998,-1.272 2.514998,-2.263"
         style="fill:#1d1918;fill-opacity:1;fill-rule:evenodd;stroke:none;stroke-width:0.13796556"
         id="path916" /><path
         d="m -106.08294,51.557638 c -0.212,-5.782 -0.38,-11.6081 -1.257,-16.7249 -1.076,-0.8281 -2.848,-0.0871 -3.521,0.6289 -0.654,2.752 -0.503,6.1031 -0.503,10.186 0,2.081 -0.359,5.451 0.252,6.413 0.831,1.312 4.471,1.045 5.029,-0.503"
         style="fill:#1d1918;fill-opacity:1;fill-rule:evenodd;stroke:none;stroke-width:0.13796556"
         id="path918" /></g></g><g
     id="g933"
     transform="matrix(0.72481834,5.1976625e-4,-5.1976625e-4,0.72481834,651.20543,329.12124)"
     style="stroke-width:1.3796556"><g
       id="Background_3_"
       style="stroke-width:1.3796556">
		<path
   d="m 53.969,656.846 c -11.731,0 -21.275,-9.544 -21.275,-21.275 V 61.374 c 0,-11.731 9.544,-21.275 21.275,-21.275 h 843.529 c 11.73,0 21.274,9.544 21.274,21.275 V 635.57 c 0,11.731 -9.544,21.275 -21.274,21.275 H 53.969 Z"
   id="path39"
   style="fill:#d6d6d6;stroke-width:1.3796556" />
		<path
   d="m 897.498,42.099 c 10.628,0 19.274,8.647 19.274,19.275 V 635.57 c 0,10.629 -8.646,19.275 -19.274,19.275 H 53.969 c -10.628,0 -19.275,-8.646 -19.275,-19.275 V 61.374 c 0,-10.628 8.646,-19.275 19.275,-19.275 h 843.529 m 0,-4 H 53.969 c -12.854,0 -23.275,10.42 -23.275,23.275 V 635.57 c 0,12.854 10.42,23.275 23.275,23.275 h 843.529 c 12.854,0 23.274,-10.422 23.274,-23.275 V 61.374 c 0,-12.855 -10.419,-23.275 -23.274,-23.275 z"
   id="path41"
   style="fill:#333333;stroke-width:1.3796556" />
	</g><path
       id="Light_3_"
       d="m 902.437,616.351 c 0,11.875 -7.313,19.188 -19.188,19.188 H 68.219 c -11.876,0 -19.189,-7.313 -19.189,-19.188 V 80.594 c 0,-11.876 7.312,-19.188 19.189,-19.188 h 815.029 c 11.875,0 19.188,7.312 19.188,19.188 v 535.757 z"
       style="fill:#e2e2e2;stroke-width:1.3796556" /><g
       transform="matrix(1.3333333,0,0,-1.3333333,598.8587,447.01831)"
       id="g1761"
       style="stroke-width:1.3796556"><path
         id="path570"
         style="fill:#333333;fill-opacity:1;fill-rule:evenodd;stroke:none;stroke-width:0.13796556"
         d="m -51.507942,106.38264 c -0.778,-3.08 -1.033,-6.681002 -2.013,-9.557002 -6.478,2.454 -13.734,5.484002 -22.131,4.905002 -8.196,-0.566 -16.225,-1.831002 -23.012,-3.899002 -2.918998,-0.89 -5.914998,-2.336 -8.927998,-3.52 -2.91,-1.147 -5.869,-2.438 -8.425,-3.899 -1.064,-0.609 -2.032,-1.529 -3.1435,-2.264 -2.952,-1.952 -6.4231,-4.95 -8.5504,-7.544 -2.0383,-2.486 -4.107,-5.69 -5.4074,-9.054 -0.6699,-1.734 -1.6485,-3.343 -2.1371,-5.155 -1.4184,-5.255 -1.0313,-11.679 0.8797,-16.599 2.5636,-6.5991 6.7058,-9.9741 11.8199,-14.0838 2.3488,-1.8864 4.9458,-3.2883 7.7968,-4.4 5.871,-2.2922 12.609,-4.2551 19.867998,-4.5282 7.132,-0.266 14.743,1.1661 21.251,3.27 8.762,2.834 15.396,6.0609 20.748,11.8191 1.358,1.4617 2.995,2.7909 3.898,4.2759 0.65,1.07 1.036,2.5 1.76,3.773 1.38,2.427 2.341,4.668 3.019,8.048 0.818,4.079 1.001,7.995 -0.504,12.072 -0.434,1.181 -1.054,2.459 -1.634,3.521 -2.944,5.382 -7.447,9.054 -13.329,11.945 -1.726,0.37 -3.255,0.936 -4.527,1.761 0.046,3.012 0.411,5.709 0.88,8.298 2.739,-0.382 5.057,-1.712 7.167,-3.017 3.999,-2.476 7.565,-5.546 10.312,-9.306 0.579,-0.792 0.983,-1.839 1.635,-2.766 0.657,-0.935 1.074,-1.88 1.507,-2.892 0.855,-1.984 1.949,-4.115 2.516,-6.162 1.733,-6.243 0.526,-12.94 -1.131,-18.108 -1.727,-5.38 -4.632,-9.766 -7.294,-13.3288 -6.049,-8.0891 -15.281,-12.5082 -25.275,-16.0942 -5.145,-1.8461 -10.292,-3.2808 -17.227,-3.5211 -11.537998,-0.3988 -22.173998,2.2809 -29.550098,6.6641 -3.0758,1.827 -5.9246,4.2898 -8.5512,6.916 -1.8109,1.8121 -3.8047,3.5231 -5.0297,5.2809 -1.95,2.8011 -4.0328,6.5461 -4.9039,10.5631 -1.8379,8.478 -0.8468,18.657 2.2637,25.15 1.5023,3.137 3.2668,6.262 5.0297,8.676 9.6289,13.182 24.6855,21.176002 43.507498,24.898002 11.682,2.31 27.004,1.618 36.845,-2.138" /><path
         id="path572"
         style="fill:#333333;fill-opacity:1;fill-rule:evenodd;stroke:none;stroke-width:0.13796556"
         d="m -69.615942,83.747638 c 1.09,-1.871 4.742,-3.88 6.035,-6.035 1.225,-2.041 0.198,-4.282 -2.765,-3.898 -2.326,1.489 -3.762,3.866 -5.534,5.91 -2.339,-2.229 -3.049,-6.088 -5.659,-8.047 -1.574,-0.192 -2.515,0.251 -3.017,1.131 -0.142,2.88 1.414,4.394 2.514,6.287 0.772,1.327 1.674,2.459 2.265,3.898 -0.231,1.635 -2.81,2.875 -4.151,4.401 -0.506,0.577 -1.305,1.825 -1.257,2.641 0.058,0.977 0.953,2.02 2.012,2.137 1.543,0.173 2.619,-1.497 3.521,-2.264 1.223,-1.036 2.125,-1.753 2.892,-2.891 1.272,0.901 2.409,3.66 3.898,5.155 1.005,1.009 3.769,1.648 4.151,-0.502 0.323,-1.835 -1.569,-3.082 -2.39,-4.024 -1.034,-1.186 -1.677,-2.757 -2.515,-3.899" /><path
         id="path574"
         style="fill:#333333;fill-opacity:1;fill-rule:evenodd;stroke:none;stroke-width:0.13796556"
         d="m -82.064942,69.287638 c -2.864,-0.797 -4.309,0.878 -5.408,2.263 -0.39,-0.447 -0.458,-1.218 -1.005,-1.508 -0.923,0 -1.845,0 -2.767,0 -1.315,0.612 -2.093,1.762 -2.766,3.017 -0.089,4.826 0.209,9.264 0.126,14.084 0.461,1.784 3.732,1.717 4.4,0.378 0.59,-1.181 0.127,-4.242 0.127,-6.414 0,-2.462 -0.186,-4.676 0.377,-6.036 1.698,0.613 2.426,3.159 2.893,5.407 0.511,2.467 -0.924,9.649 2.892,8.677 2.507,-0.639 1.481,-7.262 1.634,-10.563 0.17,-3.649 0.566,-7.49 -0.503,-9.305" /><path
         id="path576"
         style="fill:#333333;fill-opacity:1;fill-rule:evenodd;stroke:none;stroke-width:0.13796556"
         d="m -123.43544,83.873638 c 1.1281,1.335 4.6269,1.099 5.4065,-0.377 0.912,-1.724 -0.073,-5.489 -0.251,-7.67 -0.43,-5.263 -0.7543,-7.894 -0.7543,-13.958 0,-2.06 0.1546,-4.786 -0.5028,-5.659 -0.4836,-0.642 -2.2828,-0.971 -3.0187,-0.125 -0.7699,0.885 -0.5024,4.9 -0.6282,6.664 -0.5,6.982 -0.0812,14.942 -0.2515,21.125" /><path
         id="path578"
         style="fill:#333333;fill-opacity:1;fill-rule:evenodd;stroke:none;stroke-width:0.13796556"
         d="m -102.56194,81.987638 c 0.355,0.442 0.453,1.14 1.006,1.384 5.301998,1.135 4.720998,-3.51 5.155998,-7.545 0.403,-3.744 1.892,-8.168 1.257,-11.317 -3.135,-1.623 -4.31,1.477 -4.652,4.149 -0.431998,3.367 -0.558998,7.53 -2.137998,9.054 -2.934,-2.641 -2.111,-9.039 -2.641,-14.084 -0.722,-0.505 -2.913,-1.528 -3.772,-0.252 -0.448,0.667 -0.252,3.173 -0.252,4.904 0,3.642 0,6.452 0,10.312 0,1.839 -0.305,4.063 0.126,5.03 0.637,1.427 3.005,0.78 3.396,0.629 1.153,-0.45 1.302,-1.149 2.514,-2.264" /><path
         id="path580"
         style="fill:#333333;fill-opacity:1;fill-rule:evenodd;stroke:none;stroke-width:0.13796556"
         d="m -113.75294,82.742638 c 3.621,1.053 3.419,-3.997 1.131,-4.402 -2.748,-0.486 -4.068,3.547 -1.131,4.402" /><path
         id="path582"
         style="fill:#333333;fill-opacity:1;fill-rule:evenodd;stroke:none;stroke-width:0.13796556"
         d="m -110.60894,75.699638 c -0.147,-5.762 -0.499,-11.32 -1.132,-16.598 -0.989,-0.89 -3.263,-0.676 -3.773,0.629 -0.249,0.638 -0.318,2.526 -0.377,3.269 -0.133,1.68 0,4.38 0,6.79 0,2.369 -0.277,5.581 0.252,6.414 0.847,1.336 4.47,1.053 5.03,-0.504" /><path
         id="path584"
         style="fill:#333333;fill-opacity:1;fill-rule:evenodd;stroke:none;stroke-width:0.13796556"
         d="m -69.741942,50.676638 c 0.805,0.491 1.964,0.808 2.264,1.888 0.421,1.516 -0.31,3.693 0,5.532 -2.008,-0.996 -3.819,-4.878 -2.264,-7.42 z m 3.27,21.377 c 1.348,-0.076 3.051,0.202 4.023,-0.251 1.073,-1.385 0.039,-4.505 -0.125,-6.539 -0.243,-2.991 -0.089,-7.35 -0.253,-10.814 -0.081,-1.74 0.467,-9.425 -0.754,-10.311 -2.079,-1.5122 -4.017,1.436 -3.772,3.521 -1.319,-1.465 -4.099,-3.503 -6.162,-1.51 -0.288,0.28 -0.754,1.021 -0.88,1.383 -1.75,5.053 1.267,13.35 4.527,15.091 0.8,0.079 1.505,0.256 2.265,0.376 1.679,2.19 -1.087,7.077 1.131,9.054" /><path
         id="path586"
         style="fill:#333333;fill-opacity:1;fill-rule:evenodd;stroke:none;stroke-width:0.13796556"
         d="m -54.148942,63.125638 c -1.082,1.27 -2.783,-1.108 -2.39,-2.515 1.453,-0.288 2.209,1.12 2.39,2.515 z m 3.646,-6.035 c 2.215,-3.093 -2.514,-7.326 -5.785,-7.294 -2.419,0.024 -4.838,2.615 -5.407,4.653 -0.636,2.28 0.067,5.558 0.756,7.419 0.624,1.691 3.007,5.952 4.777,6.286 2.626,0.499 4.735,-1.018 5.659,-3.143 0.201,-3.517 -0.569,-5.679 -2.893,-6.915 -1.605,-0.857 -4.382,-1.151 -3.897,-3.396 0.419,-1.939 2.308,-0.148 3.017,0.629 1.076,1.176 1.253,2.07 3.773,1.761" /><path
         id="path588"
         style="fill:#333333;fill-opacity:1;fill-rule:evenodd;stroke:none;stroke-width:0.13796556"
         d="m -78.041942,66.269638 c 3.821,1.237 3.912,-4.125 1.257,-4.401 -2.588,-0.269 -3.722,3.31 -1.257,4.401" /><path
         id="path590"
         style="fill:#333333;fill-opacity:1;fill-rule:evenodd;stroke:none;stroke-width:0.13796556"
         d="m -81.938942,47.784638 c 0.49,-3.349 -0.837,-4.3851 -2.39,-6.2871 -0.968,-1.1871 -1.678,-2.5097 -2.891,-2.7668 -1.363,-0.289 -3.495,0.727 -3.522,2.0118 -0.017,0.8992 1.498,2.5191 2.013,3.1441 0.725,0.885 2.168,1.766 2.264,2.891 0.223,2.69 -4.388,3.702 -4.654,6.288 -0.393,3.825 3.795,7.261 6.162,8.425 2.307,1.136 3.332,-2.1 2.892,-3.52 -0.16,-0.518 -0.818,-1.445 -1.384,-2.012 -1.069,-1.074 -2.728,-1.202 -2.766,-2.767 -0.028,-1.144 1.578,-1.929 2.264,-2.64 0.966,-1.002 1.442,-1.707 2.012,-2.767" /><path
         id="path592"
         style="fill:#333333;fill-opacity:1;fill-rule:evenodd;stroke:none;stroke-width:0.13796556"
         d="m -76.658942,43.383538 c -1.314,-0.8188 -2.808,0.0179 -3.52,0.8801 -0.671,1.791 -0.155,5.749 -0.377,9.431 -0.145,2.394 -1.031,6.498 0.88,7.041 1.303,0.37 2.935,0.081 3.646,-0.754 1.078,-1.264 0.131,-3.864 0,-5.658 -0.271,-3.735 0.442,-8.253 -0.629,-10.9401" /><path
         id="path594"
         style="fill:#333333;fill-opacity:1;fill-rule:evenodd;stroke:none;stroke-width:0.13796556"
         d="m -109.47794,58.221638 c 3.53,1.008 3.496,-3.983 1.132,-4.401 -2.579,-0.457 -4.165,3.535 -1.132,4.401" /><path
         id="path596"
         style="fill:#333333;fill-opacity:1;fill-rule:evenodd;stroke:none;stroke-width:0.13796556"
         d="m -98.537942,54.323638 c 0.355,0.443 0.453,1.141 1.006,1.383 5.846,1.474 5.053,-5.729 5.533,-9.809 0.429,-3.6419 1.678,-6.4989 0.88,-9.052 -3.135,-1.6219 -4.31,1.4769 -4.653,4.148 -0.431,3.368 -0.558,7.529 -2.137,9.054 -1.012,-1.049 -1.892,-3.046 -2.263998,-5.029 -0.457,-2.4449 0.592998,-5.4992 -1.005,-7.041 -4.638,-0.918 -3.396,5.218 -3.396,10.184 0,2.417 -0.489,6.42 0.126,7.797 0.616,1.378 2.745,0.882 3.395,0.628 1.168998,-0.456 1.414998,-1.272 2.514998,-2.263" /><path
         id="path598"
         style="fill:#333333;fill-opacity:1;fill-rule:evenodd;stroke:none;stroke-width:0.13796556"
         d="m -106.08294,51.557638 c -0.212,-5.782 -0.38,-11.6081 -1.257,-16.7249 -1.076,-0.8281 -2.848,-0.0871 -3.521,0.6289 -0.654,2.752 -0.503,6.1031 -0.503,10.186 0,2.081 -0.359,5.451 0.252,6.413 0.831,1.312 4.471,1.045 5.029,-0.503" /></g></g></g></svg>